<svg version="1.1" id="Layer_1" xmlns="http://www.w3.org/2000/svg" xmlns:xlink="http://www.w3.org/1999/xlink" x="0px" y="0px"
	 width="100%" viewBox="0 0 275 225" enable-background="new 0 0 275 225" xml:space="preserve">
<path fill="#FDFEFE" opacity="1.000000" stroke="none" 
	d="
M199.000000,226.000000 
	C132.666672,226.000000 66.833351,226.000000 1.000018,226.000000 
	C1.000012,151.000015 1.000012,76.000031 1.000006,1.000038 
	C92.666634,1.000025 184.333267,1.000025 275.999939,1.000013 
	C275.999939,75.999962 275.999939,150.999924 275.999969,225.999939 
	C250.500000,226.000000 225.000000,226.000000 199.000000,226.000000 
M177.813049,178.600113 
	C174.331329,177.463959 170.905853,175.639679 167.354980,175.349396 
	C161.716919,174.888458 156.919693,178.598679 155.045715,183.671158 
	C152.758316,189.862701 154.373138,196.447433 159.150604,200.409393 
	C163.453827,203.978088 169.484772,204.522797 174.504776,201.706085 
	C175.833374,200.960587 177.126846,199.030273 178.013840,202.636276 
	C178.343567,202.725357 178.673279,202.814423 179.661591,203.067581 
	C180.108093,203.016144 180.554596,202.964706 181.870819,202.693619 
	C181.870819,193.929779 181.870819,185.165955 181.870819,174.772400 
	C180.158096,176.258652 179.155380,177.128784 177.813049,178.600113 
M131.793198,203.005722 
	C143.435989,202.048630 150.244720,196.330017 151.103058,186.787445 
	C152.197159,174.623779 147.883850,166.879974 137.734833,164.552338 
	C132.702850,163.398270 127.301048,163.856628 121.186424,163.975983 
	C121.186424,176.829269 121.186424,189.682541 121.186424,202.878571 
	C124.435753,202.878571 127.696877,202.878571 131.793198,203.005722 
M192.226746,13.393792 
	C191.782715,15.165306 190.953995,16.936167 190.950974,18.708429 
	C190.878433,61.315823 190.894226,103.923370 190.894028,146.530884 
	C190.894012,148.151016 190.894028,149.771149 190.894028,152.011688 
	C199.145142,149.959244 206.644333,147.914902 214.233704,146.292267 
	C217.359604,145.623917 218.214584,144.156738 218.209152,141.178848 
	C218.138367,102.399490 218.130386,63.619923 218.205032,24.840599 
	C218.210526,21.991959 217.166748,20.636124 214.510239,19.891468 
	C207.314789,17.874489 200.168213,15.683202 192.226746,13.393792 
M86.940964,100.500000 
	C86.940971,77.530304 86.980194,54.560406 86.859558,31.591345 
	C86.850800,29.923042 86.058601,27.132309 84.990837,26.774906 
	C76.686363,23.995226 68.224792,21.684858 59.451813,19.124319 
	C59.451813,61.588741 59.451813,103.460548 59.451813,145.878311 
	C67.567284,143.540848 75.321777,141.166351 83.162239,139.121445 
	C86.121155,138.349716 87.064285,136.989502 87.013374,133.955994 
	C86.831871,123.139969 86.941498,112.319061 86.940964,100.500000 
M129.862732,140.873077 
	C129.890839,122.744637 129.967117,104.615898 129.857681,86.488289 
	C129.848724,85.001755 128.871445,82.500038 127.843040,82.202629 
	C119.797363,79.875877 111.629150,77.972809 103.191223,75.862076 
	C103.191223,100.148048 103.191223,123.700752 103.191223,147.995407 
	C112.267960,145.831589 120.925850,143.767609 129.862732,140.873077 
M148.931290,77.512657 
	C148.929001,91.340706 148.869675,105.169296 149.003204,118.996033 
	C149.018356,120.563934 149.764404,123.176933 150.772278,123.515160 
	C158.244339,126.022675 165.868469,128.076965 173.827454,130.384583 
	C173.827454,105.750885 173.827454,81.990631 173.827454,57.459106 
	C169.268951,58.659855 165.148392,59.750599 161.024963,60.830395 
	C148.931870,63.997211 148.931427,63.995499 148.931290,77.512657 
M36.695282,189.221237 
	C34.481590,186.501587 32.267895,183.781937 30.860680,182.053085 
	C31.811090,178.533722 33.656399,175.157913 33.355705,171.985504 
	C32.928623,167.479630 29.206579,164.734894 24.779350,164.095444 
	C19.607655,163.348434 14.339310,163.270599 8.973089,162.892578 
	C8.973089,176.804184 8.973089,189.824615 8.973089,203.010147 
	C14.537751,203.010147 19.708055,203.292740 24.835501,202.944427 
	C32.673248,202.411972 37.038033,197.489029 36.695282,189.221237 
M71.904503,188.542694 
	C71.905701,190.705444 71.901901,192.868210 71.908981,195.030945 
	C71.935059,202.991608 74.329880,204.883316 83.741959,203.021988 
	C82.322311,201.376648 81.344788,200.222794 80.343803,199.089645 
	C79.402534,198.024124 77.675484,197.024506 77.611565,195.919678 
	C77.316513,190.819336 77.481361,185.692368 77.481361,181.352493 
	C79.704521,180.032257 81.227257,179.127975 82.749992,178.223694 
	C81.185555,177.011322 79.621124,175.798935 77.628838,174.254990 
	C77.530548,173.152908 77.370369,171.356857 77.193123,169.369507 
	C75.450096,169.369507 73.893784,169.369507 72.125320,169.369507 
	C71.969383,171.551971 71.831787,173.477798 71.674576,175.678070 
	C70.457275,175.752365 69.466965,175.993103 68.542595,175.838821 
	C63.910755,175.065720 61.326244,176.837051 59.840263,181.421341 
	C58.138168,186.672318 55.648846,191.668106 53.221130,197.441635 
	C50.550472,190.987335 48.014008,185.252151 45.813164,179.390961 
	C44.485023,175.853928 42.497997,174.977844 38.966713,176.629211 
	C41.182823,181.826736 42.939144,187.071548 45.563881,191.838135 
	C49.506790,198.998581 50.992691,205.900681 46.049770,213.129364 
	C45.927128,213.308716 46.171822,213.739243 46.254658,214.093033 
	C49.180790,215.271286 50.760696,214.120880 51.974892,211.319778 
	C55.938999,202.174698 60.290596,193.193985 64.103020,183.988480 
	C65.723427,180.075821 67.844322,178.980942 71.903694,180.634140 
	C71.903694,182.958084 71.903694,185.266983 71.904503,188.542694 
M268.895630,188.787643 
	C268.588074,187.493469 268.366547,186.171494 267.958557,184.909790 
	C265.818512,178.292007 259.956848,174.485336 252.938065,175.100189 
	C246.239487,175.686981 241.297821,180.382050 240.245789,187.159103 
	C239.245224,193.604599 242.471130,199.824677 248.165344,202.429291 
	C254.842941,205.483749 261.991699,203.831467 267.211273,197.769196 
	C266.151031,196.921097 265.103394,196.083069 264.042145,195.234146 
	C259.705627,199.263901 254.980164,200.757370 250.036987,198.140610 
	C247.827301,196.970886 246.472351,194.186569 244.729492,192.134995 
	C252.117432,191.064453 258.437073,191.147552 264.751312,191.000107 
	C266.151367,190.967407 267.532410,190.121017 268.895630,188.787643 
M98.596237,175.060196 
	C89.638649,176.361298 84.509056,182.270493 85.171120,190.525742 
	C85.790916,198.254135 91.612076,203.752426 99.347549,203.915955 
	C104.396133,204.022659 111.473083,200.566162 111.713974,197.570999 
	C110.866577,196.891006 109.879669,196.099060 108.947273,195.350861 
	C99.880371,201.905991 91.595909,199.988235 90.610214,190.950958 
	C98.088013,190.950958 105.531929,190.950958 112.949081,190.950958 
	C113.332977,181.304153 108.982994,176.315811 98.596237,175.060196 
M206.264435,177.072510 
	C199.784821,172.032104 193.684937,179.392593 187.388901,176.851242 
	C187.388901,186.056244 187.388901,194.456009 187.388901,203.201782 
	C189.136841,203.007462 190.516693,202.854065 192.131516,202.674545 
	C192.131516,196.959198 191.934937,191.646027 192.193619,186.355133 
	C192.401230,182.108948 194.811554,179.711639 199.290039,179.694260 
	C203.575363,179.677628 205.194351,182.241669 205.357681,186.015762 
	C205.544266,190.326889 205.570770,194.648911 205.527481,198.964798 
	C205.491409,202.560013 207.041565,203.640350 210.664566,202.549500 
	C210.664566,197.250229 211.120361,192.062622 210.500824,187.006760 
	C210.102432,183.755615 208.122696,180.698257 206.264435,177.072510 
M214.236816,184.021637 
	C212.297394,192.144165 214.175751,198.180267 219.731430,201.678741 
	C225.260712,205.160568 231.853653,204.600571 237.505753,199.931396 
	C236.570053,198.889847 235.645630,197.860840 234.782547,196.900116 
	C228.870148,200.143524 224.313141,199.994614 221.218628,196.662811 
	C218.359268,193.584198 217.899063,187.248260 220.267807,183.571640 
	C223.059479,179.238571 226.984146,178.680542 235.082977,181.580597 
	C235.743225,180.592621 236.436203,179.555679 237.120865,178.531158 
	C228.707993,172.378418 219.802216,174.377655 214.236816,184.021637 
z"/>
<path fill="#79E5DC" opacity="1.000000" stroke="none" 
	d="
M192.614502,13.477417 
	C200.168213,15.683202 207.314789,17.874489 214.510239,19.891468 
	C217.166748,20.636124 218.210526,21.991959 218.205032,24.840599 
	C218.130386,63.619923 218.138367,102.399490 218.209152,141.178848 
	C218.214584,144.156738 217.359604,145.623917 214.233704,146.292267 
	C206.644333,147.914902 199.145142,149.959244 190.894028,152.011688 
	C190.894028,149.771149 190.894012,148.151016 190.894028,146.530884 
	C190.894226,103.923370 190.878433,61.315823 190.950974,18.708429 
	C190.953995,16.936167 191.782715,15.165306 192.614502,13.477417 
z"/>
<path fill="#375CB4" opacity="1.000000" stroke="none" 
	d="
M86.940948,101.000000 
	C86.941498,112.319061 86.831871,123.139969 87.013374,133.955994 
	C87.064285,136.989502 86.121155,138.349716 83.162239,139.121445 
	C75.321777,141.166351 67.567284,143.540848 59.451813,145.878311 
	C59.451813,103.460548 59.451813,61.588741 59.451813,19.124319 
	C68.224792,21.684858 76.686363,23.995226 84.990837,26.774906 
	C86.058601,27.132309 86.850800,29.923042 86.859558,31.591345 
	C86.980194,54.560406 86.940971,77.530304 86.940948,101.000000 
z"/>
<path fill="#408DFB" opacity="1.000000" stroke="none" 
	d="
M129.723236,141.288361 
	C120.925850,143.767609 112.267960,145.831589 103.191223,147.995407 
	C103.191223,123.700752 103.191223,100.148048 103.191223,75.862076 
	C111.629150,77.972809 119.797363,79.875877 127.843040,82.202629 
	C128.871445,82.500038 129.848724,85.001755 129.857681,86.488289 
	C129.967117,104.615898 129.890839,122.744637 129.723236,141.288361 
z"/>
<path fill="#07C6D0" opacity="1.000000" stroke="none" 
	d="
M148.931274,77.015564 
	C148.931427,63.995499 148.931870,63.997211 161.024963,60.830395 
	C165.148392,59.750599 169.268951,58.659855 173.827454,57.459106 
	C173.827454,81.990631 173.827454,105.750885 173.827454,130.384583 
	C165.868469,128.076965 158.244339,126.022675 150.772278,123.515160 
	C149.764404,123.176933 149.018356,120.563934 149.003204,118.996033 
	C148.869675,105.169296 148.929001,91.340706 148.931274,77.015564 
z"/>
<path fill="#4062B0" opacity="1.000000" stroke="none" 
	d="
M36.779442,189.608459 
	C37.038033,197.489029 32.673248,202.411972 24.835501,202.944427 
	C19.708055,203.292740 14.537751,203.010147 8.973089,203.010147 
	C8.973089,189.824615 8.973089,176.804184 8.973089,162.892578 
	C14.339310,163.270599 19.607655,163.348434 24.779350,164.095444 
	C29.206579,164.734894 32.928623,167.479630 33.355705,171.985504 
	C33.656399,175.157913 31.811090,178.533722 30.860680,182.053085 
	C32.267895,183.781937 34.481590,186.501587 36.779442,189.608459 
M26.242439,185.887466 
	C22.561859,185.542831 18.881281,185.198212 15.137161,184.847626 
	C15.137161,189.811615 15.137161,193.866394 15.137161,198.058945 
	C18.413324,198.058945 21.531254,198.661560 24.249226,197.877579 
	C26.632715,197.190063 29.422693,195.384399 30.496168,193.286270 
	C32.033443,190.281662 30.097086,187.608337 26.242439,185.887466 
M21.923702,168.077423 
	C19.676655,168.077423 17.429607,168.077423 15.065521,168.077423 
	C15.065521,172.338837 15.065521,176.068832 15.065521,179.742416 
	C22.299845,181.107010 26.712854,179.837952 27.687529,175.951050 
	C28.722916,171.822052 26.729698,169.306824 21.923702,168.077423 
z"/>
<path fill="#4161AC" opacity="1.000000" stroke="none" 
	d="
M71.904099,188.059296 
	C71.903694,185.266983 71.903694,182.958084 71.903694,180.634140 
	C67.844322,178.980942 65.723427,180.075821 64.103020,183.988480 
	C60.290596,193.193985 55.938999,202.174698 51.974892,211.319778 
	C50.760696,214.120880 49.180790,215.271286 46.254658,214.093033 
	C46.171822,213.739243 45.927128,213.308716 46.049770,213.129364 
	C50.992691,205.900681 49.506790,198.998581 45.563881,191.838135 
	C42.939144,187.071548 41.182823,181.826736 38.966713,176.629211 
	C42.497997,174.977844 44.485023,175.853928 45.813164,179.390961 
	C48.014008,185.252151 50.550472,190.987335 53.221130,197.441635 
	C55.648846,191.668106 58.138168,186.672318 59.840263,181.421341 
	C61.326244,176.837051 63.910755,175.065720 68.542595,175.838821 
	C69.466965,175.993103 70.457275,175.752365 71.674576,175.678070 
	C71.831787,173.477798 71.969383,171.551971 72.125320,169.369507 
	C73.893784,169.369507 75.450096,169.369507 77.193123,169.369507 
	C77.370369,171.356857 77.530548,173.152908 77.628838,174.254990 
	C79.621124,175.798935 81.185555,177.011322 82.749992,178.223694 
	C81.227257,179.127975 79.704521,180.032257 77.481361,181.352493 
	C77.481361,185.692368 77.316513,190.819336 77.611565,195.919678 
	C77.675484,197.024506 79.402534,198.024124 80.343803,199.089645 
	C81.344788,200.222794 82.322311,201.376648 83.741959,203.021988 
	C74.329880,204.883316 71.935059,202.991608 71.908981,195.030945 
	C71.901901,192.868210 71.905701,190.705444 71.904099,188.059296 
z"/>
<path fill="#4263AF" opacity="1.000000" stroke="none" 
	d="
M122.066559,163.585495 
	C127.301048,163.856628 132.702850,163.398270 137.734833,164.552338 
	C147.883850,166.879974 152.197159,174.623779 151.103058,186.787445 
	C150.244720,196.330017 143.435989,202.048630 131.078659,202.672211 
	C129.716400,202.225296 129.036392,201.923416 128.426025,202.028000 
	C123.102364,202.940109 121.687141,200.656509 121.886917,195.487305 
	C122.297356,184.866913 122.045692,174.220932 122.066559,163.585495 
M139.805908,170.411804 
	C135.424515,169.406448 131.043121,168.401093 126.294769,167.311554 
	C126.294769,178.399429 126.294769,188.214249 126.294769,197.996124 
	C136.550690,198.852386 142.333633,196.378235 144.844788,190.261581 
	C147.699829,183.307281 146.002701,175.849518 139.805908,170.411804 
z"/>
<path fill="#4464AE" opacity="1.000000" stroke="none" 
	d="
M268.908936,189.218475 
	C267.532410,190.121017 266.151367,190.967407 264.751312,191.000107 
	C258.437073,191.147552 252.117432,191.064453 244.729492,192.134995 
	C246.472351,194.186569 247.827301,196.970886 250.036987,198.140610 
	C254.980164,200.757370 259.705627,199.263901 264.042145,195.234146 
	C265.103394,196.083069 266.151031,196.921097 267.211273,197.769196 
	C261.991699,203.831467 254.842941,205.483749 248.165344,202.429291 
	C242.471130,199.824677 239.245224,193.604599 240.245789,187.159103 
	C241.297821,180.382050 246.239487,175.686981 252.938065,175.100189 
	C259.956848,174.485336 265.818512,178.292007 267.958557,184.909790 
	C268.366547,186.171494 268.588074,187.493469 268.908936,189.218475 
M246.399002,187.036316 
	C251.877151,187.036316 257.355316,187.036316 263.217621,187.036316 
	C261.803711,181.433792 258.414490,179.298523 253.949860,179.534119 
	C249.655411,179.760712 245.929626,181.516022 246.399002,187.036316 
z"/>
<path fill="#4464AE" opacity="1.000000" stroke="none" 
	d="
M99.011826,175.060028 
	C108.982994,176.315811 113.332977,181.304153 112.949081,190.950958 
	C105.531929,190.950958 98.088013,190.950958 90.610214,190.950958 
	C91.595909,199.988235 99.880371,201.905991 108.947273,195.350861 
	C109.879669,196.099060 110.866577,196.891006 111.713974,197.570999 
	C111.473083,200.566162 104.396133,204.022659 99.347549,203.915955 
	C91.612076,203.752426 85.790916,198.254135 85.171120,190.525742 
	C84.509056,182.270493 89.638649,176.361298 99.011826,175.060028 
M103.713478,180.603516 
	C96.283562,178.244324 91.962616,180.284698 90.660202,186.702179 
	C96.308563,186.702179 101.963432,186.702179 108.786354,186.702179 
	C106.879364,184.257965 105.612862,182.634674 103.713478,180.603516 
z"/>
<path fill="#4161AD" opacity="1.000000" stroke="none" 
	d="
M181.001099,202.913269 
	C180.554596,202.964706 180.108093,203.016144 179.334259,202.700043 
	C178.828476,201.854767 178.650024,201.377060 178.471573,200.899338 
	C178.301651,201.297363 178.131714,201.695404 177.961792,202.093430 
	C177.126846,199.030273 175.833374,200.960587 174.504776,201.706085 
	C169.484772,204.522797 163.453827,203.978088 159.150604,200.409393 
	C154.373138,196.447433 152.758316,189.862701 155.045715,183.671158 
	C156.919693,178.598679 161.716919,174.888458 167.354980,175.349396 
	C170.905853,175.639679 174.331329,177.463959 178.388062,178.321320 
	C179.641174,179.448105 180.862518,180.837448 180.905182,182.262070 
	C181.111130,189.140594 180.999863,196.028610 181.001099,202.913269 
M169.319046,199.143341 
	C175.277206,197.840088 178.198883,194.321014 177.884232,188.826874 
	C177.600754,183.876663 174.224640,180.189453 169.582275,179.759827 
	C164.082825,179.250900 159.864594,182.671143 159.146133,188.158813 
	C158.448807,193.484894 162.404236,199.753479 169.319046,199.143341 
z"/>
<path fill="#4465AF" opacity="1.000000" stroke="none" 
	d="
M206.558105,177.313263 
	C208.122696,180.698257 210.102432,183.755615 210.500824,187.006760 
	C211.120361,192.062622 210.664566,197.250229 210.664566,202.549500 
	C207.041565,203.640350 205.491409,202.560013 205.527481,198.964798 
	C205.570770,194.648911 205.544266,190.326889 205.357681,186.015762 
	C205.194351,182.241669 203.575363,179.677628 199.290039,179.694260 
	C194.811554,179.711639 192.401230,182.108948 192.193619,186.355133 
	C191.934937,191.646027 192.131516,196.959198 192.131516,202.674545 
	C190.516693,202.854065 189.136841,203.007462 187.388901,203.201782 
	C187.388901,194.456009 187.388901,186.056244 187.388901,176.851242 
	C193.684937,179.392593 199.784821,172.032104 206.558105,177.313263 
z"/>
<path fill="#4665AF" opacity="1.000000" stroke="none" 
	d="
M214.411713,183.677246 
	C219.802216,174.377655 228.707993,172.378418 237.120865,178.531158 
	C236.436203,179.555679 235.743225,180.592621 235.082977,181.580597 
	C226.984146,178.680542 223.059479,179.238571 220.267807,183.571640 
	C217.899063,187.248260 218.359268,193.584198 221.218628,196.662811 
	C224.313141,199.994614 228.870148,200.143524 234.782547,196.900116 
	C235.645630,197.860840 236.570053,198.889847 237.505753,199.931396 
	C231.853653,204.600571 225.260712,205.160568 219.731430,201.678741 
	C214.175751,198.180267 212.297394,192.144165 214.411713,183.677246 
z"/>
<path fill="#3A5AA0" opacity="1.000000" stroke="none" 
	d="
M121.626488,163.780731 
	C122.045692,174.220932 122.297356,184.866913 121.886917,195.487305 
	C121.687141,200.656509 123.102364,202.940109 128.426025,202.028000 
	C129.036392,201.923416 129.716400,202.225296 130.661072,202.608643 
	C127.696877,202.878571 124.435753,202.878571 121.186424,202.878571 
	C121.186424,189.682541 121.186424,176.829269 121.626488,163.780731 
z"/>
<path fill="#3C599B" opacity="1.000000" stroke="none" 
	d="
M181.435959,202.803436 
	C180.999863,196.028610 181.111130,189.140594 180.905182,182.262070 
	C180.862518,180.837448 179.641174,179.448105 178.557861,178.020706 
	C179.155380,177.128784 180.158096,176.258652 181.870819,174.772400 
	C181.870819,185.165955 181.870819,193.929779 181.435959,202.803436 
z"/>
<path fill="#3C599B" opacity="1.000000" stroke="none" 
	d="
M177.987823,202.364853 
	C178.131714,201.695404 178.301651,201.297363 178.471573,200.899338 
	C178.650024,201.377060 178.828476,201.854767 179.004959,202.617996 
	C178.673279,202.814423 178.343567,202.725357 177.987823,202.364853 
z"/>
<path fill="#F7FAFE" opacity="1.000000" stroke="none" 
	d="
M26.635487,186.000305 
	C30.097086,187.608337 32.033443,190.281662 30.496168,193.286270 
	C29.422693,195.384399 26.632715,197.190063 24.249226,197.877579 
	C21.531254,198.661560 18.413324,198.058945 15.137161,198.058945 
	C15.137161,193.866394 15.137161,189.811615 15.137161,184.847626 
	C18.881281,185.198212 22.561859,185.542831 26.635487,186.000305 
z"/>
<path fill="#F5F9FD" opacity="1.000000" stroke="none" 
	d="
M22.342060,168.138916 
	C26.729698,169.306824 28.722916,171.822052 27.687529,175.951050 
	C26.712854,179.837952 22.299845,181.107010 15.065521,179.742416 
	C15.065521,176.068832 15.065521,172.338837 15.065521,168.077423 
	C17.429607,168.077423 19.676655,168.077423 22.342060,168.138916 
z"/>
<path fill="#FAFCFE" opacity="1.000000" stroke="none" 
	d="
M140.118408,170.638687 
	C146.002701,175.849518 147.699829,183.307281 144.844788,190.261581 
	C142.333633,196.378235 136.550690,198.852386 126.294769,197.996124 
	C126.294769,188.214249 126.294769,178.399429 126.294769,167.311554 
	C131.043121,168.401093 135.424515,169.406448 140.118408,170.638687 
z"/>
<path fill="#F2F7FC" opacity="1.000000" stroke="none" 
	d="
M246.019608,186.901276 
	C245.929626,181.516022 249.655411,179.760712 253.949860,179.534119 
	C258.414490,179.298523 261.803711,181.433792 263.217621,187.036316 
	C257.355316,187.036316 251.877151,187.036316 246.019608,186.901276 
z"/>
<path fill="#F1F7FD" opacity="1.000000" stroke="none" 
	d="
M104.029922,180.807449 
	C105.612862,182.634674 106.879364,184.257965 108.786354,186.702179 
	C101.963432,186.702179 96.308563,186.702179 90.660202,186.702179 
	C91.962616,180.284698 96.283562,178.244324 104.029922,180.807449 
z"/>
<path fill="#F8FBFE" opacity="1.000000" stroke="none" 
	d="
M168.909210,199.154053 
	C162.404236,199.753479 158.448807,193.484894 159.146133,188.158813 
	C159.864594,182.671143 164.082825,179.250900 169.582275,179.759827 
	C174.224640,180.189453 177.600754,183.876663 177.884232,188.826874 
	C178.198883,194.321014 175.277206,197.840088 168.909210,199.154053 
z"/>
</svg>