<svg version="1.1" id="Layer_1" xmlns="http://www.w3.org/2000/svg" xmlns:xlink="http://www.w3.org/1999/xlink" x="0px" y="0px"
	 width="100%" viewBox="0 0 200 200" enable-background="new 0 0 200 200" xml:space="preserve">
<path fill="#FDFDFE" opacity="1.000000" stroke="none" 
	d="
M118.000000,201.000000 
	C78.690948,201.000000 39.881901,201.000000 1.036424,201.000000 
	C1.036424,134.399323 1.036424,67.798615 1.036424,1.098956 
	C67.558884,1.098956 134.117950,1.098956 200.838516,1.098956 
	C200.838516,67.666351 200.838516,134.333145 200.838516,201.000000 
	C173.465561,201.000000 145.982788,201.000000 118.000000,201.000000 
M141.496017,29.999392 
	C133.225876,33.006218 124.890945,35.850422 116.719696,39.105495 
	C113.742554,40.291466 111.862526,39.808167 109.748711,37.600819 
	C107.030319,34.762150 103.982460,32.238995 101.041374,29.547764 
	C97.907959,32.397041 94.964737,34.646019 92.566566,37.374130 
	C90.162659,40.108761 87.856712,40.140717 84.705086,38.909031 
	C76.201126,35.585587 67.592346,32.528790 59.009895,29.408169 
	C49.829807,26.070244 40.632282,22.780273 30.586800,19.161131 
	C31.597069,30.886429 32.464478,41.778782 33.599911,52.643131 
	C33.695904,53.561588 35.472698,54.732204 36.661091,55.038162 
	C43.577297,56.818794 50.547581,58.390869 57.506161,60.005100 
	C68.607933,62.580460 79.714867,65.133606 91.039131,67.746796 
	C88.733131,75.125023 86.597847,81.957024 84.357796,89.124237 
	C95.834549,89.124237 106.444916,89.124237 117.735077,89.124237 
	C115.459946,81.858971 113.307571,74.985725 111.091873,67.910271 
	C112.363640,67.535812 113.280815,67.215233 114.221634,66.996254 
	C131.045792,63.080406 147.883621,59.221996 164.680283,55.191898 
	C166.152206,54.838737 168.410187,53.488663 168.524734,52.412373 
	C169.669861,41.652493 170.441757,30.852886 171.392273,19.161888 
	C161.187790,22.879879 151.717926,26.330214 141.496017,29.999392 
M55.476284,157.813324 
	C58.950413,157.813324 62.424538,157.813324 65.997086,157.813324 
	C66.263428,156.720032 66.598343,155.936676 66.626785,155.142365 
	C67.419746,133.000748 68.229919,110.859344 68.834229,88.712357 
	C68.872345,87.315590 67.603371,85.363716 66.364281,84.542252 
	C61.240170,81.145172 55.888954,78.091263 50.629715,74.897217 
	C45.585621,71.833824 40.552082,68.753044 34.674198,65.167702 
	C37.450176,96.778641 40.121696,127.200066 42.810059,157.813324 
	C47.193295,157.813324 50.845390,157.813324 55.476284,157.813324 
M164.757996,96.219444 
	C165.572220,86.224594 166.386429,76.229736 167.280548,65.254082 
	C156.454041,71.826950 146.636887,77.946716 136.639206,83.755768 
	C133.778702,85.417839 132.933197,87.264862 133.069702,90.490166 
	C133.934570,110.924202 134.571823,131.367828 135.308548,151.807419 
	C135.378387,153.745026 135.616425,155.676605 135.781082,157.667969 
	C143.750641,157.667969 151.209198,157.667969 159.248947,157.667969 
	C161.050461,137.429596 162.843842,117.282562 164.757996,96.219444 
M104.498581,95.112747 
	C96.399323,95.112747 88.300064,95.112747 80.177597,95.112747 
	C80.177597,98.045700 80.177597,100.312973 80.177597,103.109993 
	C83.631493,103.109993 86.872215,103.109993 89.942078,103.109993 
	C89.942078,119.023849 89.942078,134.399063 89.942078,150.161148 
	C86.457870,150.161148 83.355743,150.161148 80.178711,150.161148 
	C80.178711,152.814835 80.178711,155.071136 80.178711,157.581757 
	C94.135742,157.581757 107.864334,157.581757 121.746895,157.581757 
	C121.746895,154.973373 121.746895,152.614746 121.746895,149.860474 
	C118.304161,149.860474 115.211342,149.860474 112.059303,149.860474 
	C112.059303,134.080460 112.059303,118.705811 112.059303,102.940475 
	C115.456596,102.940475 118.553375,102.940475 121.748505,102.940475 
	C121.748505,100.170654 121.748505,97.803757 121.748505,95.112793 
	C116.105125,95.112793 110.801498,95.112793 104.498581,95.112747 
M57.933571,172.496002 
	C57.933571,174.474899 57.933571,176.453781 57.933571,178.927979 
	C53.314903,174.946869 52.958942,166.561172 44.438755,169.685196 
	C44.438755,176.423843 44.438755,183.141525 44.438755,190.088257 
	C46.640038,190.088257 48.582756,190.088257 50.290611,190.088257 
	C51.061028,188.160156 51.778355,186.364929 52.616192,184.268097 
	C59.025101,190.872223 59.025101,190.872223 64.323227,189.637924 
	C64.323227,182.877518 64.323227,176.141052 64.323227,169.448425 
	C59.106743,168.967010 59.106743,168.967010 57.933571,172.496002 
M106.296341,182.140045 
	C105.771378,175.672852 106.856567,174.798492 112.943153,176.148819 
	C114.905182,176.584091 117.045197,176.217072 119.234253,176.217072 
	C117.572182,170.482437 112.884384,167.921799 107.205345,169.233261 
	C101.577637,170.532867 98.179283,175.922806 99.285873,181.793884 
	C100.443550,187.935913 105.368614,191.288666 111.774315,190.295364 
	C118.121414,189.311142 120.448387,185.779953 119.487343,178.293488 
	C116.111725,178.293488 112.704048,178.293488 109.158249,178.293488 
	C109.158249,179.821518 109.158249,181.103424 109.158249,182.623337 
	C110.639633,182.859573 112.009186,183.077972 113.378738,183.296387 
	C113.232330,183.806549 113.085930,184.316711 112.939522,184.826859 
	C110.875061,184.167084 108.810593,183.507309 106.296341,182.140045 
M158.221420,168.965912 
	C150.947556,169.156799 146.358307,173.103424 146.135269,179.359680 
	C145.924973,185.259323 150.557220,190.265869 156.516846,190.580109 
	C161.899796,190.863922 166.638779,187.232697 167.768448,181.958603 
	C169.037537,176.033554 165.873779,171.344604 158.221420,168.965912 
M85.201019,179.739243 
	C86.319794,176.366852 87.438576,172.994446 88.556664,169.624146 
	C83.480499,168.102585 80.833855,169.500198 80.028572,174.383286 
	C79.575546,177.130356 78.496407,179.774155 77.427139,183.383209 
	C76.369919,179.881943 75.304146,177.264862 74.817856,174.544220 
	C73.918030,169.509949 71.165108,168.011703 66.140724,169.624817 
	C68.438271,176.465195 70.740807,183.320389 73.005753,190.063690 
	C76.146194,190.063690 78.900070,190.063690 81.724075,190.063690 
	C82.865799,186.752136 83.942528,183.629105 85.201019,179.739243 
M144.592545,185.917221 
	C142.553040,185.488235 140.513535,185.059235 138.209351,184.574570 
	C138.209351,179.498672 138.209351,174.538910 138.209351,169.410248 
	C136.016434,169.410248 134.126602,169.410248 132.080872,169.410248 
	C132.080872,176.407745 132.080872,183.143677 132.080872,190.256561 
	C135.608292,190.256561 138.901352,190.116837 142.176559,190.298538 
	C145.060440,190.458511 144.949326,188.714310 144.592545,185.917221 
M90.096275,175.634338 
	C90.096275,180.405869 90.096275,185.177399 90.096275,190.082031 
	C92.590622,190.082031 94.522118,190.082031 96.563263,190.082031 
	C96.563263,183.010147 96.563263,176.157364 96.563263,169.453049 
	C94.264465,169.453049 92.351341,169.453049 90.098122,169.453049 
	C90.098122,171.411514 90.098122,173.045639 90.096275,175.634338 
M128.916367,175.629898 
	C128.916367,173.539352 128.916367,171.448822 128.916367,169.418518 
	C126.288445,169.418518 124.373283,169.418518 122.328079,169.418518 
	C122.328079,176.445847 122.328079,183.174347 122.328079,190.093109 
	C124.535378,190.093109 126.464722,190.093109 128.919952,190.093109 
	C128.919952,185.475754 128.919952,181.036270 128.916367,175.629898 
M34.828671,187.420029 
	C34.959560,193.017151 38.802620,189.092834 40.870762,190.334869 
	C40.870762,182.959534 40.870762,176.156891 40.870762,169.426727 
	C38.708851,169.426727 36.967796,169.426727 34.816006,169.426727 
	C34.816006,175.264053 34.816006,180.845581 34.828671,187.420029 
z"/>
<path fill="#35486E" opacity="1.000000" stroke="none" 
	d="
M141.872040,29.889969 
	C151.717926,26.330214 161.187790,22.879879 171.392273,19.161888 
	C170.441757,30.852886 169.669861,41.652493 168.524734,52.412373 
	C168.410187,53.488663 166.152206,54.838737 164.680283,55.191898 
	C147.883621,59.221996 131.045792,63.080406 114.221634,66.996254 
	C113.280815,67.215233 112.363640,67.535812 111.091873,67.910271 
	C113.307571,74.985725 115.459946,81.858971 117.735077,89.124237 
	C106.444916,89.124237 95.834549,89.124237 84.357796,89.124237 
	C86.597847,81.957024 88.733131,75.125023 91.039131,67.746796 
	C79.714867,65.133606 68.607933,62.580460 57.506161,60.005100 
	C50.547581,58.390869 43.577297,56.818794 36.661091,55.038162 
	C35.472698,54.732204 33.695904,53.561588 33.599911,52.643131 
	C32.464478,41.778782 31.597069,30.886429 30.586800,19.161131 
	C40.632282,22.780273 49.829807,26.070244 59.009895,29.408169 
	C67.592346,32.528790 76.201126,35.585587 84.705086,38.909031 
	C87.856712,40.140717 90.162659,40.108761 92.566566,37.374130 
	C94.964737,34.646019 97.907959,32.397041 101.041374,29.547764 
	C103.982460,32.238995 107.030319,34.762150 109.748711,37.600819 
	C111.862526,39.808167 113.742554,40.291466 116.719696,39.105495 
	C124.890945,35.850422 133.225876,33.006218 141.872040,29.889969 
z"/>
<path fill="#19293C" opacity="1.000000" stroke="none" 
	d="
M54.986885,157.813324 
	C50.845390,157.813324 47.193295,157.813324 42.810059,157.813324 
	C40.121696,127.200066 37.450176,96.778641 34.674198,65.167702 
	C40.552082,68.753044 45.585621,71.833824 50.629715,74.897217 
	C55.888954,78.091263 61.240170,81.145172 66.364281,84.542252 
	C67.603371,85.363716 68.872345,87.315590 68.834229,88.712357 
	C68.229919,110.859344 67.419746,133.000748 66.626785,155.142365 
	C66.598343,155.936676 66.263428,156.720032 65.997086,157.813324 
	C62.424538,157.813324 58.950413,157.813324 54.986885,157.813324 
z"/>
<path fill="#19293C" opacity="1.000000" stroke="none" 
	d="
M164.697601,96.677483 
	C162.843842,117.282562 161.050461,137.429596 159.248947,157.667969 
	C151.209198,157.667969 143.750641,157.667969 135.781082,157.667969 
	C135.616425,155.676605 135.378387,153.745026 135.308548,151.807419 
	C134.571823,131.367828 133.934570,110.924202 133.069702,90.490166 
	C132.933197,87.264862 133.778702,85.417839 136.639206,83.755768 
	C146.636887,77.946716 156.454041,71.826950 167.280548,65.254082 
	C166.386429,76.229736 165.572220,86.224594 164.697601,96.677483 
z"/>
<path fill="#3C5068" opacity="1.000000" stroke="none" 
	d="
M104.998222,95.112770 
	C110.801498,95.112793 116.105125,95.112793 121.748505,95.112793 
	C121.748505,97.803757 121.748505,100.170654 121.748505,102.940475 
	C118.553375,102.940475 115.456596,102.940475 112.059303,102.940475 
	C112.059303,118.705811 112.059303,134.080460 112.059303,149.860474 
	C115.211342,149.860474 118.304161,149.860474 121.746895,149.860474 
	C121.746895,152.614746 121.746895,154.973373 121.746895,157.581757 
	C107.864334,157.581757 94.135742,157.581757 80.178711,157.581757 
	C80.178711,155.071136 80.178711,152.814835 80.178711,150.161148 
	C83.355743,150.161148 86.457870,150.161148 89.942078,150.161148 
	C89.942078,134.399063 89.942078,119.023849 89.942078,103.109993 
	C86.872215,103.109993 83.631493,103.109993 80.177597,103.109993 
	C80.177597,100.312973 80.177597,98.045700 80.177597,95.112747 
	C88.300064,95.112747 96.399323,95.112747 104.998222,95.112770 
z"/>
<path fill="#273444" opacity="1.000000" stroke="none" 
	d="
M57.938698,172.055908 
	C59.106743,168.967010 59.106743,168.967010 64.323227,169.448425 
	C64.323227,176.141052 64.323227,182.877518 64.323227,189.637924 
	C59.025101,190.872223 59.025101,190.872223 52.616192,184.268097 
	C51.778355,186.364929 51.061028,188.160156 50.290611,190.088257 
	C48.582756,190.088257 46.640038,190.088257 44.438755,190.088257 
	C44.438755,183.141525 44.438755,176.423843 44.438755,169.685196 
	C52.958942,166.561172 53.314903,174.946869 57.933571,178.927979 
	C57.933571,176.453781 57.933571,174.474899 57.938698,172.055908 
z"/>
<path fill="#212E3E" opacity="1.000000" stroke="none" 
	d="
M106.521240,182.493774 
	C108.810593,183.507309 110.875061,184.167084 112.939522,184.826859 
	C113.085930,184.316711 113.232330,183.806549 113.378738,183.296387 
	C112.009186,183.077972 110.639633,182.859573 109.158249,182.623337 
	C109.158249,181.103424 109.158249,179.821518 109.158249,178.293488 
	C112.704048,178.293488 116.111725,178.293488 119.487343,178.293488 
	C120.448387,185.779953 118.121414,189.311142 111.774315,190.295364 
	C105.368614,191.288666 100.443550,187.935913 99.285873,181.793884 
	C98.179283,175.922806 101.577637,170.532867 107.205345,169.233261 
	C112.884384,167.921799 117.572182,170.482437 119.234253,176.217072 
	C117.045197,176.217072 114.905182,176.584091 112.943153,176.148819 
	C106.856567,174.798492 105.771378,175.672852 106.521240,182.493774 
z"/>
<path fill="#202E40" opacity="1.000000" stroke="none" 
	d="
M158.630585,168.993927 
	C165.873779,171.344604 169.037537,176.033554 167.768448,181.958603 
	C166.638779,187.232697 161.899796,190.863922 156.516846,190.580109 
	C150.557220,190.265869 145.924973,185.259323 146.135269,179.359680 
	C146.358307,173.103424 150.947556,169.156799 158.630585,168.993927 
M158.239868,175.141037 
	C157.427948,175.157227 156.052124,174.904800 155.895660,175.233215 
	C154.883087,177.358887 153.744156,179.578796 153.557220,181.843002 
	C153.505615,182.468292 156.548767,183.349060 158.171951,184.112610 
	C159.105484,182.120346 160.262375,180.189850 160.840439,178.099304 
	C161.020782,177.447083 159.637115,176.362396 158.239868,175.141037 
z"/>
<path fill="#223041" opacity="1.000000" stroke="none" 
	d="
M85.110138,180.122650 
	C83.942528,183.629105 82.865799,186.752136 81.724075,190.063690 
	C78.900070,190.063690 76.146194,190.063690 73.005753,190.063690 
	C70.740807,183.320389 68.438271,176.465195 66.140724,169.624817 
	C71.165108,168.011703 73.918030,169.509949 74.817856,174.544220 
	C75.304146,177.264862 76.369919,179.881943 77.427139,183.383209 
	C78.496407,179.774155 79.575546,177.130356 80.028572,174.383286 
	C80.833855,169.500198 83.480499,168.102585 88.556664,169.624146 
	C87.438576,172.994446 86.319794,176.366852 85.110138,180.122650 
z"/>
<path fill="#1E2B3D" opacity="1.000000" stroke="none" 
	d="
M144.704895,186.353012 
	C144.949326,188.714310 145.060440,190.458511 142.176559,190.298538 
	C138.901352,190.116837 135.608292,190.256561 132.080872,190.256561 
	C132.080872,183.143677 132.080872,176.407745 132.080872,169.410248 
	C134.126602,169.410248 136.016434,169.410248 138.209351,169.410248 
	C138.209351,174.538910 138.209351,179.498672 138.209351,184.574570 
	C140.513535,185.059235 142.553040,185.488235 144.704895,186.353012 
z"/>
<path fill="#263343" opacity="1.000000" stroke="none" 
	d="
M90.097198,175.157059 
	C90.098122,173.045639 90.098122,171.411514 90.098122,169.453049 
	C92.351341,169.453049 94.264465,169.453049 96.563263,169.453049 
	C96.563263,176.157364 96.563263,183.010147 96.563263,190.082031 
	C94.522118,190.082031 92.590622,190.082031 90.096275,190.082031 
	C90.096275,185.177399 90.096275,180.405869 90.097198,175.157059 
z"/>
<path fill="#263344" opacity="1.000000" stroke="none" 
	d="
M128.918152,176.113342 
	C128.919952,181.036270 128.919952,185.475754 128.919952,190.093109 
	C126.464722,190.093109 124.535378,190.093109 122.328079,190.093109 
	C122.328079,183.174347 122.328079,176.445847 122.328079,169.418518 
	C124.373283,169.418518 126.288445,169.418518 128.916367,169.418518 
	C128.916367,171.448822 128.916367,173.539352 128.918152,176.113342 
z"/>
<path fill="#1A2839" opacity="1.000000" stroke="none" 
	d="
M34.822338,186.923569 
	C34.816006,180.845581 34.816006,175.264053 34.816006,169.426727 
	C36.967796,169.426727 38.708851,169.426727 40.870762,169.426727 
	C40.870762,176.156891 40.870762,182.959534 40.870762,190.334869 
	C38.802620,189.092834 34.959560,193.017151 34.822338,186.923569 
z"/>
<path fill="#F2F4F6" opacity="1.000000" stroke="none" 
	d="
M158.604645,175.308365 
	C159.637115,176.362396 161.020782,177.447083 160.840439,178.099304 
	C160.262375,180.189850 159.105484,182.120346 158.171951,184.112610 
	C156.548767,183.349060 153.505615,182.468292 153.557220,181.843002 
	C153.744156,179.578796 154.883087,177.358887 155.895660,175.233215 
	C156.052124,174.904800 157.427948,175.157227 158.604645,175.308365 
z"/>
</svg>