<svg xmlns="http://www.w3.org/2000/svg" width="100%" viewBox="0 0 751 991" height="150" xmlns:v="https://vecta.io/nano"><path fill="#fff" d="M1 373V1h751v991H1V373m255 10.531l2.047 4.546c23.106 51.383 60.598 87.523 113.549 107.376 4.151 1.556 7.818 1.546 11.985-.006 52.649-19.608 90.056-55.378 113.33-106.292 12.751-27.894 19.945-56.766 19.476-87.809l-.206-151.972v-5.623H239.149v5.697l-.143 154.473c-.269 27.695 5.866 53.72 16.994 79.611m23.371 317.317h6.891V536.82h-23.048v118.943l-3.984-5.474-72.362-103.478c-3.47-4.973-7.69-9.354-13.822-9.723-9.911-.596-19.883-.16-29.834-.16v163.645h22.635v-59.12-60.379l3.76 5.229 73.047 104.23c4.862 6.96 11.132 10.678 19.761 10.355 5.323-.199 10.66-.038 16.957-.038M318.995 562.5l.304 86.465c.66 27.701 15.973 46.627 42.318 53.667 16.643 4.447 33.636 4.907 50.51 1.734 34.38-6.465 50.751-26.415 50.854-61.468l.021-101.968v-4.167h-34.534v5.658l-.026 101.468c-.091 26.433-12.391 40.334-36.239 41.366-20.084.869-33.526-9.46-37.371-29.042-.891-4.538-1.24-9.25-1.254-13.883l-.061-99.969v-5.6h-34.522V562.5m266.221 49.727l-45.458-20.248c-6.071-2.874-12.161-6.428-17.022-10.976-7.801-7.299-6.019-19.05 2.995-24.813 2.205-1.41 4.722-2.533 7.25-3.206 16.019-4.261 31.994-3.747 47.628 1.637 7.259 2.5 14.17 6.011 21.397 9.132 0-6.141-.212-12.308.086-18.45.16-3.302-1.108-4.885-4.089-5.608-9.98-2.419-19.833-5.796-29.955-7.102-19.31-2.491-38.455-1.469-56.904 6.017-33.813 13.72-31.411 56.956-10.191 73.304 10.882 8.383 23.359 13.137 35.857 18.157 10.438 4.193 21.275 7.959 30.769 13.808 14.702 9.058 13.139 28.663-2.555 36.071-5.996 2.83-12.984 4.445-19.628 4.853-22.153 1.359-42.896-3.327-61.564-17.493 0 7.933.265 15.208-.105 22.45-.203 3.986 1.04 5.956 4.81 7.295 28.525 10.128 57.627 12.463 86.875 4.627 33.233-8.904 41.759-34.472 35.435-59.255-3.51-13.755-13.28-22.715-25.633-30.199m-413 144.279v-15.885h-5.481v26.373c-1.651-.908-2.485-2.044-3.163-3.266-3.384-6.1-7.121-12.046-9.96-18.393-2.299-5.14-5.591-5.761-10.27-4.345v36.168h5.702v-27.522c5.138 7.723 9.792 15.511 13.776 23.629 2.17 4.422 5.007 5.032 9.395 3.784v-20.544m193.308 89.928l-4.429-1.439-.577 6.016c5.251 0 10.159.458 14.939-.127 4.956-.606 8.255-4.081 8.444-9.081.361-9.568.105-19.16.105-29.96-4.492 3.865-8.168.925-12.041.17-.161-.031-.331-.02-.497-.027-8.801-.416-14.53 7.604-12.693 17.768 1.541 8.525 9.023 12.457 16.826 8.819 1.03-.48 1.99-1.11 3.071-1.721.488 8.356-2.892 10.985-13.147 9.582m2.26-96.822c.01 4.999-.124 10.003.064 14.995.301 7.957 5.195 13.055 12.597 13.416 9.207.45 14.806-3.264 15.519-11.688.709-8.384.155-16.876.155-25.62h-5.147l-.001 5.548c-.031 5.831.215 11.681-.175 17.488-.481 7.154-5.159 10.802-11.268 9.074-5.37-1.518-6.18-6.072-6.278-10.711-.151-7.11-.04-14.226-.04-21.731l-5.426.344v8.885m70.085 90.673c5.763-.999 8.367-4.91 9.285-10.25 1.028-5.982.76-11.812-4.526-15.819-1.825-1.383-4.548-1.894-6.932-2.157-4.544-.501-8.63 4.635-13.583.103v38.631h4.906v-12.461c3.522.728 6.804 1.406 10.851 1.953M286.043 807.87c-1.984 6.895-.634 10.301 5.471 13.651 2.036 1.117 4.522 1.747 6.075 3.319s3.336 4.328 2.907 6.034c-.451 1.793-3.245 3.792-5.307 4.189-2.766.533-5.812-.385-9.063-.713l-.378 5.311c3.791.195 7.239.76 10.611.459 5.946-.531 9.477-3.651 10.408-8.405 1.007-5.143-1.172-9.49-6.295-12.389-2.164-1.225-4.649-2.025-6.517-3.583-1.343-1.12-2.961-3.532-2.559-4.729.546-1.623 2.773-3.43 4.521-3.724 2.64-.444 5.487.351 8.686.661l.319-4.547c-9.527-2.53-13.933-1.582-18.877 4.466m225.49 23.567l-.655-4.171h19.091c-.237-1.92-.347-3.226-.567-4.514-1.241-7.257-4.936-10.727-11.438-10.785s-11.385 3.902-12.779 10.363c-2.626 12.17 5.913 20.308 18.487 17.714 3.534-.729 5.292-2.236 3.641-6.174-5.504 2.253-10.919 4.233-15.78-2.433m-271.164-17.531c-8.068-3.633-15.465-1.91-19.202 4.473-3.744 6.394-2.22 15.159 3.36 19.323 5.948 4.439 14.791 3.428 19.222-2.197 5.108-6.484 3.959-15.495-3.38-21.599m237.394 20.163c4.199-9.054 1.611-18.01-6.091-21.079-6.779-2.701-14.503-.172-17.726 5.805-3.669 6.804-1.693 15.454 4.438 19.427 6.319 4.096 13.685 2.715 19.38-4.153m-76.905-22.025c-3.08 1.18-8.287.201-6.663 6.445 9.545-3.899 13.521-2.638 13.682 4.423-6.322.242-13.753-1.128-16.608 6.548-.894 2.403.381 7.14 2.351 8.777 4.71 3.912 10.194 2.805 13.703.189l6.544 1.856c0-6.237.176-11.534-.04-16.815-.351-8.615-3.318-11.31-12.97-11.423m-91.863-46.261c-1.599 3.915-1.548 7.819 2.088 10.329 4.857 3.353 9.972 2.595 13.582.022l6.359 1.633.004-17.875c.011-4.125-1.08-8.412-5.305-9.126-4.323-.73-8.999.381-13.462 1.065-.552.085-.745 2.503-1.24 4.344 10.83-3.576 13.809-2.629 14.252 2.537-5.568 2.238-10.738 4.316-16.278 7.069m-127.909 9.598c2.094.877 4.122 2.232 6.296 2.532 4.829.668 9.48-2.856 14.64-.826l-.001-15.446c-.016-10.552-8.216-15.53-17.604-10.487-1.237.665-1.688 2.794-2.503 4.245 10.651-3.064 14.77-1.631 14.347 4.916-2.823.211-5.651.2-8.396.671-7.828 1.345-10.433 6.414-6.779 14.395m320.133-13.391c-.849-7.923-3.922-11.68-9.961-12.181-7.217-.598-12.465 2.802-14.095 9.13-3.213 12.472 5.06 21.242 17.75 18.897 3.532-.653 5.43-2.084 3.812-5.947-10.436 3.486-15.335 1.454-15.949-6.866 5.15 0 10.285.125 15.403-.101 1.078-.048 2.099-1.382 3.04-2.933m-201.724 15.608c.79-.624 2.259-1.242 2.265-1.872.052-5.964.292-11.982-.394-17.883-.684-5.874-4.073-8.389-9.98-7.973-2.801.197-5.528 1.456-8.288 2.234l.459-.728-5.598-1.61v27.508h5.076c0-2.122-.085-3.932.017-5.73.233-4.112.174-8.294.957-12.307.72-3.687 3.663-5.521 7.444-5.116 3.758.402 4.646 3.378 4.774 6.527.182 4.476-.016 8.971.292 13.435.084 1.214 1.402 2.342 2.976 3.515m129.176-21.469c-3.538-7.219-8.511-8.293-16.496-4.486l-6.773-1.754v27.659l5.386-.262c0-5.46-.289-10.44.079-15.371.387-5.18 3.757-8.334 7.844-7.824 4.942.616 5.116 4.553 5.218 8.256.136 4.937.034 9.881.034 15.033h4.938l-.23-21.25m156.786 9.023l3.435 9.347c2.323 6.449.155 9.872-6.991 10.724l.267 3.568c5.23 1.161 9.236-.318 11.079-4.93 4.356-10.904 8.295-21.975 12.438-33.073-5.208-.891-5.232-.899-6.569 3.045l-6.064 18.113-7.33-21.912-5.53.376 5.265 14.743m-314.303-3.355c-1.417-7.243-5.297-11.309-11.384-11.93-7.102-.725-12.331 1.934-14.813 7.532-2.676 6.036-1.31 13.266 3.432 17.378 4.475 3.88 9.692 4.388 14.9 2.102 6.027-2.646 8.25-7.814 7.865-15.081m73.667 50.442l-11.012 1.846-5.516-1.597v27.385l4.532-.287c.33-5.787.423-11.248 1.02-16.654.461-4.173 3.304-6.785 7.441-6.586 4.439.214 5.331 3.991 5.477 7.636.187 4.649.042 9.312.098 13.967.007.606.366 1.207.625 2.002l4.499-.474c0-6.179.175-11.995-.058-17.794-.17-4.236-1.905-7.736-7.106-9.444m-83.076 26.665v-21.698l6.742-.356c.17-3.655.17-3.655-6.158-4.51-.995-7.231-.78-7.533 7.894-9.353-1.706-1.639-2.689-3.434-3.928-3.632-6.284-1.003-8.529 1.91-10.489 13.15l-5.897.525.418 3.839 6.146.466v22.542c1.868-.103 3.309-.182 5.27-.972m204.115-65.526l8.031-22.744c-3.745-1.323-5.526-.283-6.533 3.259-1.615 5.682-3.739 11.22-5.972 17.773-2.134-6.349-4.171-11.751-5.734-17.287-1.067-3.778-2.85-5.353-7.134-3.639l8.439 23.211c.573 1.47 2.226 2.988 3.724 3.524 2.708.969 4.307-.715 5.18-4.098M217.904 744.37l-5.314-1.033-.455 6.505-.927-.782-4.809 3.404 5.967 3.668.031 11.859c.046 1.975.093 4.055.722 5.888 1.203 3.51 6.133 5.518 10.139 3.922 1.162-.463 1.635-2.656 3.013-5.1-5.219 1.558-8.105 1.081-8.294-3.388-.202-4.78-.045-9.575-.045-14.307 7.227-.733 7.227-.733 6.074-4.753l-6.093-.39-.007-5.493m360.12 8.029l-6.875-3.632-.374-6.269-4.807 1.641-.446 5.715-5.316.539c-1.956 6.113 3.613 3.161 5.576 5.251l.013 14.017c.084 6.191 2.837 8.592 9.034 8.408 3.433-.102 4.426-1.461 3.239-4.768-3.312.84-6.517.681-6.869-3.31-.444-5.032-.107-10.133-.107-14.596 2.782-.854 4.841-1.486 6.934-2.995m-51.647 8.235c2.6 1.956 5.332 3.765 7.748 5.927 1.307 1.17 2.075 2.941 3.086 4.441-1.76.92-3.446 2.334-5.301 2.611-1.644.245-3.477-.776-5.265-1.248-1.435 3.121-.604 5.138 2.92 5.469 2.298.216 4.708.366 6.939-.088 3.489-.709 5.968-2.833 6.488-6.639.504-3.689-.759-6.52-4.131-8.275-1.618-.842-3.489-1.377-4.815-2.542-1.075-.944-2.321-2.877-1.999-3.902.337-1.074 2.393-2.041 3.809-2.233 1.686-.229 3.491.417 6.697.904-1.113-2.222-1.446-4.287-2.494-4.757-7.419-3.324-14.149 1.407-13.682 10.332m-3.642-10.412l-9.123 1.178-5.556-1.714v27.624h4.967l.015-12.086c.164-7.643 2.505-10.289 9.954-11.296 0-.968 0-1.958-.256-3.707m-31.133 77.473c.632-8.709 1.83-10.107 9.755-11.326.573-2.581.32-5.369-3.017-4.24-4.033 1.365-7.993 1.073-11.924.679v26.873h5.185l.001-11.986m-146.599-85.07v-4.57h-4.791v39.21h4.791v-34.639m-108.072 22.86v-15.466l-5.271.301v27.347l5.271-.326v-11.857m317.997-4.952v-10.496l-5.281.26v27.357l5.283-.29-.001-16.831m-116.94 7.903v8.822h4.879V750.42h-4.879v18.016m-123.993 51.139v20.035h4.929v-26.575h-4.929v6.54m128.813-80.663h-4.767v5.485h5.365c0-1.845 0-3.434-.597-5.485m-206.039 5.134v-5.021H230.9l.314 5.475c1.946 0 3.4 0 5.555-.454m316.535.564l2.388-5.538h-6.439c-.082 2.8-1.374 5.952 4.051 5.538m-238.366 62.413h4.425v-5.793h-5.693c.183 2.045.34 3.793 1.268 5.793z"/><path fill="#06417e" d="M255.875 383.171c-11.004-25.531-17.139-51.556-16.87-79.251l.143-154.473v-5.697h277.033v5.623l.206 151.972c.468 31.043-6.725 59.915-19.476 87.809-23.274 50.914-60.681 86.684-113.33 106.292-4.168 1.552-7.834 1.562-11.985.006-52.951-19.853-90.443-55.993-113.549-107.376l-2.172-4.905m238.623-129.634h-248.33v5.898c0 13.995.385 28.004-.084 41.983-.859 25.588 4.646 49.848 14.03 73.431 21.475 53.97 58.371 92.585 113.08 113.335 2.61.99 6.25.999 8.856.007 50.753-19.32 87.054-53.909 109.046-103.603 9.693-21.902 17.167-44.42 17.91-68.525.615-19.974.134-39.982.111-59.976-.001-.784-.288-1.567-.481-2.55h-14.138m-53.52-97.257c-16.46 3.295-24.549 12.046-26.929 28.833-.192 1.355-1.387 2.889-2.555 3.734-13.334 9.656-17.388 26.623-9.471 40.152 8.125 13.884 24.495 18.947 39.409 12.412 1.661-.728 4.184-.765 5.834-.043 14.745 6.45 31.357 1.54 39.213-11.823 8.115-13.803 4.442-30.595-8.629-40.395-1.492-1.119-2.865-3.198-3.143-5.009-2.785-18.102-14.473-28.16-33.73-27.862m-167.382 78.589c14.635-2.239 29.134-2.161 43.447 2.232 1.588.487 3.584.367 5.207-.104 10.169-2.952 20.477-4.333 31.053-3.308l17.309 1.738v-71.511c-15.392-2.219-30.571-4-45.631.711-3.818 1.194-7.208 1.272-11.072.049-15.162-4.798-30.434-3.017-45.708-.726v71.709l5.394-.792z"/><path fill="#04407e" d="M278.888 700.848c-5.814 0-11.151-.161-16.474.038-8.628.323-14.899-3.394-19.761-10.355l-73.047-104.23-3.76-5.229v60.379 59.12h-22.635V536.927c9.95 0 19.923-.436 29.834.16 6.131.369 10.351 4.751 13.822 9.723l72.362 103.478c1.027 1.467 2.106 2.897 3.984 5.474V536.82h23.048v164.028c-2.369 0-4.63 0-7.373 0z"/><path fill="#023f7d" d="M318.995 562v-25.239h34.522v5.6l.061 99.969c.015 4.634.363 9.345 1.254 13.883 3.845 19.582 17.286 29.911 37.371 29.042 23.848-1.032 36.148-14.933 36.239-41.366l.026-101.468v-5.658h34.534v4.167l-.021 101.968c-.103 35.053-16.474 55.003-50.854 61.468-16.874 3.173-33.867 2.713-50.51-1.734-26.346-7.04-41.658-25.966-42.318-53.667-.687-28.808-.25-57.642-.304-86.965z"/><path fill="#033f7d" d="M585.518 612.434c12.051 7.278 21.821 16.238 25.331 29.993 6.324 24.783-2.201 50.352-35.435 59.255-29.248 7.836-58.349 5.501-86.875-4.627-3.77-1.339-5.014-3.309-4.81-7.295.37-7.242.105-14.517.105-22.45 18.668 14.165 39.41 18.852 61.564 17.493 6.644-.408 13.632-2.022 19.628-4.853 15.694-7.407 17.257-27.013 2.555-36.071-9.494-5.849-20.33-9.616-30.769-13.808-12.499-5.02-24.976-9.774-35.857-18.157-21.22-16.348-23.622-59.584 10.191-73.304 18.449-7.486 37.594-8.508 56.904-6.017 10.122 1.306 19.975 4.683 29.955 7.102 2.98.722 4.249 2.305 4.089 5.608-.298 6.142-.086 12.309-.086 18.45-7.226-3.121-14.137-6.632-21.397-9.132-15.633-5.384-31.608-5.898-47.628-1.637-2.528.673-5.045 1.795-7.25 3.206-9.014 5.764-10.796 17.514-2.995 24.813 4.861 4.548 10.951 8.102 17.022 10.976 14.989 7.095 30.285 13.541 45.76 20.455z"/><path fill="#0f4782" d="M172.217 757.005v20.046c-4.388 1.248-7.225.639-9.395-3.784-3.983-8.118-8.638-15.907-13.776-23.629v27.522h-5.702v-36.168c4.679-1.416 7.971-.795 10.27 4.345 2.838 6.347 6.576 12.293 9.96 18.393.678 1.222 1.511 2.358 3.163 3.266v-26.373h5.481v16.383z"/><path fill="#0c4481" d="M365.906 846.584c9.874 1.254 13.254-1.376 12.766-9.731-1.081.611-2.041 1.241-3.071 1.721-7.802 3.638-15.285-.294-16.826-8.819-1.837-10.163 3.892-18.183 12.693-17.768.166.008.336-.004.497.027 3.873.754 7.548 3.695 12.041-.17 0 10.8.256 20.391-.105 29.96-.189 5-3.488 8.475-8.444 9.081-4.78.585-9.689.127-14.939.127l.577-6.016 4.81 1.587m-1.793-22.596c.228 2.122.072 4.379.76 6.34 1.717 4.893 6.405 6.617 10.303 3.915 3.977-2.757 4.43-6.859 3.462-11.149-.825-3.657-2.921-6.651-6.964-6.787-4.415-.148-6.195 3.226-7.561 7.68z"/><path fill="#0f4782" d="M367.785 749.137v-8.409l5.426-.344.04 21.731c.098 4.64.908 9.193 6.278 10.711 6.109 1.727 10.787-1.92 11.268-9.074.39-5.807.144-11.657.175-17.488l.001-5.548h5.147c0 8.744.554 17.235-.155 25.62-.712 8.424-6.312 12.138-15.519 11.688-7.402-.361-12.296-5.46-12.597-13.416-.189-4.992-.054-9.996-.064-15.471z"/><path fill="#0c4481" d="M437.487 840.351c-3.664-.613-6.947-1.291-10.468-2.019v12.461h-4.906v-38.631c4.953 4.531 9.039-.604 13.583-.103 2.384.263 5.108.774 6.932 2.157 5.287 4.007 5.554 9.837 4.526 15.819-.918 5.34-3.522 9.251-9.667 10.315m-7.252-5.957c5.527 3.059 9.444 1.83 10.997-4.115.748-2.863.702-6.377-.305-9.111-.756-2.053-3.593-4.587-5.547-4.624-2.27-.043-5.407 1.873-6.716 3.884-2.858 4.391-2.288 9.162 1.571 13.965z"/><path fill="#0f4782" d="M286.213 807.522c4.774-5.699 9.18-6.647 18.707-4.117l-.319 4.547c-3.198-.311-6.046-1.105-8.686-.661-1.747.294-3.975 2.101-4.521 3.724-.403 1.197 1.215 3.609 2.559 4.729 1.868 1.558 4.353 2.359 6.517 3.583 5.124 2.899 7.302 7.245 6.295 12.389-.931 4.754-4.462 7.875-10.408 8.405-3.371.301-6.82-.265-10.611-.459l.378-5.311c3.252.328 6.297 1.246 9.063.713 2.062-.397 4.856-2.396 5.307-4.189.429-1.706-1.358-4.465-2.907-6.034s-4.038-2.202-6.075-3.319c-6.106-3.35-7.456-6.755-5.301-13.999z"/><path fill="#134a84" d="M511.763 831.785c4.632 6.318 10.047 4.338 15.551 2.085 1.651 3.938-.107 5.445-3.641 6.174-12.574 2.594-21.113-5.544-18.487-17.714 1.394-6.461 6.276-10.42 12.779-10.363s10.197 3.528 11.438 10.785c.22 1.288.33 2.594.567 4.514h-19.091c.289 1.838.472 3.005.885 4.519m1.616-13.919l-3.253 5.369h13.544c-.567-6.147-3.732-8-10.291-5.369z"/><path d="M240.705 814.087c7.004 5.923 8.153 14.933 3.045 21.418-4.431 5.625-13.274 6.635-19.222 2.197-5.58-4.164-7.104-12.929-3.36-19.323 3.737-6.382 11.134-8.105 19.538-4.292m.357 14.009c-.058-1.652.144-3.364-.221-4.945-1.343-5.814-7.152-8.547-11.786-5.68-3.336 2.064-5.195 7.464-3.894 12.006 1.018 3.556 3.033 6.325 7.134 6.591 5.076.33 7.49-2.692 8.767-7.972zm236.477 6.275c-5.471 6.566-12.837 7.947-19.156 3.851-6.13-3.973-8.106-12.623-4.438-19.427 3.223-5.977 10.946-8.506 17.726-5.805 7.702 3.069 10.29 12.025 5.868 21.381m-3.403-7.104c-.156-1.64-.04-3.364-.519-4.904-1.578-5.078-6.684-7.429-10.928-5.209-3.762 1.968-5.823 7.272-4.526 12.133 1.074 4.029 3.436 6.927 7.969 6.795 5.006-.146 7.168-3.456 8.004-8.815zm-72.856-15.254c9.229.145 12.196 2.839 12.547 11.454.215 5.281.04 10.578.04 16.815l-6.544-1.856c-3.509 2.615-8.993 3.723-13.703-.189-1.97-1.636-3.245-6.373-2.351-8.777 2.855-7.676 10.286-6.306 16.608-6.548-.161-7.061-4.137-8.322-13.682-4.423-1.624-6.244 3.583-5.265 7.086-6.476m-3.034 16.421c-.365 2-1.567 5.355-.937 5.743 1.851 1.143 4.654 1.92 6.675 1.361 3.819-1.058 4.855-4.354 4.185-8.919-3.216.503-6.223.973-9.924 1.815zm-89.067-62.988c5.355-2.415 10.524-4.493 16.092-6.732-.443-5.167-3.422-6.113-14.252-2.537.495-1.84.688-4.259 1.24-4.344 4.463-.685 9.14-1.795 13.462-1.065 4.225.714 5.316 5.001 5.305 9.126l-.004 17.875-6.359-1.633c-3.611 2.572-8.725 3.331-13.582-.022-3.636-2.51-3.686-6.414-1.902-10.666m5.871 1.198c.011 1.923-.488 5.294.123 5.509 2.258.794 5.18 1.32 7.3.507 3.266-1.253 3.915-4.445 3.082-8.687-3.573.778-6.732 1.465-10.505 2.671z" fill="#0f4782"/><path d="M180.852 775.063c-3.42-7.662-.815-12.732 7.013-14.077 2.745-.471 5.573-.46 8.396-.671.423-6.547-3.696-7.98-14.347-4.916.815-1.451 1.266-3.581 2.503-4.245 9.388-5.043 17.589-.065 17.604 10.487l.001 15.446c-5.16-2.03-9.811 1.494-14.64.826-2.174-.301-4.202-1.656-6.53-2.85m15.089-10.397c-2.592.24-5.4-.045-7.698.905-1.502.621-3.324 3.226-3.071 4.584.268 1.444 2.69 3.248 4.391 3.52 4.626.739 7.466-3.007 6.379-9.009zm305.331-2.272c-.994 1.146-2.015 2.481-3.093 2.528-5.119.226-10.253.101-15.403.101.614 8.32 5.514 10.352 15.949 6.866 1.617 3.864-.28 5.295-3.812 5.947-12.69 2.344-20.963-6.425-17.75-18.897 1.63-6.329 6.878-9.728 14.095-9.13 6.04.5 9.113 4.258 10.014 12.585m-14.671-1.237h9.125c-.255-3.917-1.746-6.976-5.401-6.882-2.371.061-5.198 1.759-6.893 3.585-1.855 1.999-.657 3.613 3.169 3.297z" fill="#0c4481"/><path d="M299.084 777.595c-1.163-1.17-2.481-2.298-2.565-3.512-.308-4.463-.11-8.959-.292-13.435-.128-3.15-1.016-6.125-4.774-6.527-3.781-.405-6.725 1.429-7.444 5.116-.783 4.012-.724 8.194-.957 12.307-.102 1.798-.017 3.608-.017 5.73h-5.076v-27.508l5.598 1.61-.459.728c2.76-.778 5.487-2.037 8.288-2.234 5.908-.416 9.297 2.098 9.98 7.973.687 5.901.446 11.918.394 17.883-.005.631-1.475 1.249-2.676 1.87zm129.702-21.083l.115 20.867h-4.938l-.034-15.033c-.102-3.703-.276-7.64-5.218-8.256-4.087-.51-7.458 2.644-7.844 7.824-.368 4.931-.079 9.911-.079 15.371l-5.386.262v-27.659l6.773 1.754c7.985-3.807 12.958-2.733 16.611 4.87z" fill="#134a84"/><path fill="#0f4782" d="M585.307 764.791l-5.115-14.382 5.53-.376 7.33 21.912 6.064-18.113c1.337-3.944 1.361-3.936 6.569-3.045l-12.438 33.073c-1.843 4.613-5.85 6.092-11.079 4.93l-.267-3.568c7.146-.853 9.314-4.276 6.991-10.724l-3.585-9.708z"/><path fill="#0c4481" d="M271.171 762.23c.368 6.833-1.855 12.001-7.882 14.647-5.208 2.287-10.425 1.778-14.9-2.102-4.742-4.111-6.108-11.341-3.432-17.378 2.482-5.598 7.711-8.256 14.813-7.532 6.087.621 9.967 4.688 11.401 12.364m-5.792 4.453c1.137-8.091-3.424-14.032-9.609-12.515-3.895.955-6.73 5.276-6.594 10.051.142 4.987 3.04 9.03 7.166 9.491 4.671.522 7.524-1.862 9.038-7.028z"/><path fill="#06417e" d="M345.206 812.357c4.816 1.589 6.552 5.089 6.722 9.325.233 5.799.058 11.615.058 17.794l-4.499.474c-.259-.795-.618-1.397-.625-2.002-.057-4.656.088-9.318-.098-13.967-.146-3.645-1.038-7.422-5.477-7.636-4.137-.199-6.98 2.414-7.441 6.586-.597 5.406-.69 10.867-1.02 16.654l-4.532.287v-27.385l5.516 1.597c3.209-.538 7.111-1.192 11.397-1.727z"/><path fill="#174e87" d="M261.485 839.258c-1.701.435-3.142.514-5.01.617v-22.542l-6.146-.466-.418-3.839 5.897-.525c1.96-11.24 4.205-14.153 10.489-13.15 1.238.198 2.222 1.993 3.928 3.632-8.674 1.82-8.889 2.122-7.894 9.353 6.329.855 6.329.855 6.158 4.51l-6.742.356-.26 22.053z"/><path fill="#134a84" d="M465.716 773.737c-.728 3.022-2.327 4.707-5.035 3.738-1.498-.536-3.151-2.055-3.724-3.524-2.991-7.667-5.658-15.46-8.439-23.211 4.284-1.714 6.067-.139 7.134 3.639 1.563 5.536 3.6 10.938 5.734 17.287 2.234-6.553 4.357-12.091 5.972-17.773 1.007-3.543 2.788-4.582 6.533-3.259l-8.175 23.104z"/><path fill="#1c5189" d="M217.907 744.769l.004 5.094 6.093.39c1.153 4.019 1.153 4.019-6.074 4.753 0 4.733-.156 9.527.045 14.307.189 4.469 3.075 4.946 8.294 3.388-1.377 2.444-1.85 4.637-3.013 5.1-4.007 1.596-8.937-.412-10.139-3.922-.628-1.833-.675-3.914-.722-5.888-.1-4.282-.031-8.568-.031-11.859l-5.967-3.668 4.809-3.404.927.782.455-6.505c1.827.355 3.57.694 5.317 1.433z"/><path d="M578.007 752.836c-2.076 1.07-4.135 1.703-6.917 2.557 0 4.463-.337 9.564.107 14.596.352 3.991 3.558 4.15 6.869 3.31 1.187 3.307.194 4.665-3.239 4.768-6.197.185-8.95-2.216-9.034-8.408l-.013-14.017c-1.962-2.09-7.532.862-5.576-5.251l5.316-.539.446-5.715 4.807-1.641.374 6.269c2.658 1.404 4.767 2.518 6.858 4.07zm-51.778 7.429c-.319-8.556 6.411-13.287 13.83-9.963 1.048.469 1.381 2.534 2.494 4.757-3.206-.487-5.011-1.133-6.697-.904-1.416.192-3.472 1.159-3.809 2.233-.322 1.026.925 2.958 1.999 3.902 1.326 1.164 3.197 1.7 4.815 2.542 3.371 1.755 4.635 4.586 4.131 8.275-.52 3.806-2.999 5.93-6.488 6.639-2.231.454-4.641.303-6.939.088-3.524-.331-4.355-2.347-2.92-5.469 1.788.472 3.621 1.493 5.265 1.248 1.856-.276 3.542-1.691 5.301-2.611-1.011-1.5-1.779-3.272-3.086-4.441-2.416-2.162-5.148-3.971-7.896-6.296z" fill="#0f4782"/><path fill="#0c4481" d="M522.863 750.601c.128 1.369.128 2.359.128 3.327-7.449 1.007-9.789 3.653-9.954 11.296-.085 3.95-.015 7.904-.015 12.086h-4.967v-27.624l5.556 1.714c2.707-.35 5.915-.764 9.251-.798z"/><path fill="#174e87" d="M491.602 828.165v11.516h-5.185v-26.873c3.93.394 7.891.686 11.924-.679 3.337-1.129 3.591 1.659 3.017 4.24-7.926 1.219-9.123 2.617-9.756 11.796z"/><path fill="#033f7d" d="M345.003 743.113v34.151h-4.791v-39.21h4.791v5.058z"/><path d="M236.93 765.978v11.364l-5.271.326V750.32l5.271-.301v15.959zm317.998-4.95l.001 16.336-5.283.29v-27.357l5.281-.26v10.991z" fill="#24588d"/><path fill="#06417e" d="M437.988 767.946V750.42h4.879v26.838h-4.879v-9.312z"/><path fill="#033f7d" d="M313.995 819.086v-6.051h4.929v26.575h-4.929v-20.524z"/><path fill="#24588d" d="M443.107 739.143c.299 1.82.299 3.409.299 5.255h-5.365v-5.485l5.066.231z"/><path fill="#174e87" d="M236.418 744.273c-1.804.227-3.258.227-5.204.227l-.314-5.475h5.869c0 1.636 0 3.329-.351 5.248z"/><path fill="#1c5189" d="M552.892 744.618c-5.013.406-3.722-2.746-3.639-5.546h6.439c-.888 2.059-1.638 3.799-2.8 5.546z"/><path fill="#174e87" d="M314.552 806.897c-.542-1.874-.699-3.622-.882-5.667h5.693v5.793c-1.588 0-3.007 0-4.811-.127z"/><path fill="#fcfdfd" d="M494.997 253.537h13.639c.193.983.48 1.767.481 2.55l-.111 59.976c-.743 24.105-8.217 46.623-17.91 68.525-21.992 49.694-58.293 84.283-109.046 103.603-2.606.992-6.246.983-8.856-.007-54.709-20.749-91.605-59.365-113.08-113.335-9.384-23.583-14.888-47.843-14.03-73.431.469-13.98.084-27.988.084-41.983v-5.898h248.829m-121.216 25.598l2.476-2.011c-4.223-5.163-10.102-5.338-15.907-5.825l.184-3.283c-4.912-.403-9.374-.946-13.85-1.089-4.846-.154-8.721 1.832-11.137 6.427-6.584-10.795-16.566-4.587-25.524-5.667l.788 3.569c-5.795.661-11.98.427-15.93 5.914l4.871 4.368c-9.644 5.586-11.196 11.581-4.122 16.952l-6.387 5.244 7.898 4.93-2.249 6.155c-6.617-4.014-11.086-9.245-12.68-16.765-.79-3.726-1.995-7.375-3.18-11.004-1.617-4.955-7.902-8.981-13.561-8.855 2.787 4.775 2.46 5.278-2.398 5.841l-3.112 9.634 1.351 4.335c.721 2.136.865 5.042 2.361 6.244 7.962 6.394 11.288 15.862 16.548 24.019 1.474 2.285 2.439 5.128 2.832 7.833.848 5.837 1.175 11.75 1.748 17.994l5.454-1.661v16.946c6.588-9.974 16.379-9.851 25.078-12.494l3.154 4.762 4.98-4.705c1.345 3.947 1.601 8.611 4.055 11.148 6.698 6.923 5.56 14.133 2.883 21.959-1.127 3.294-1.709 6.771-2.742 10.102-3.31 10.668-3.347 10.711-14.548 10.665-5.987-.025-10.812 2.384-14.87 6.583-.228.236-.081.833-.12 1.437l4.411-.739-2.014 5.942c6.028-2.279 4.924 1.616 4.237 4.741 1.48-.065 2.566-.254 3.616-.134 3.46.398 6.956 1.5 10.347 1.223 4.088-.334 8.05-1.992 12.128-2.731 4.984-.904 7.672-3.687 9.307-8.482 4.114-12.059 11.288-21.744 23.106-27.424 1.597-.767 3.11-1.709 5.811-3.208l-6.215-3.649 14.277-6.926-3.395-5.217 17.049-4.684-1.56-4.268c2.964-2.061 4.7-1.545 6.583 1.465 2.9 4.637 6.166 9.14 9.88 13.14 2.638 2.841 2.885 5.284 1.245 8.422-.691 1.322-1.472 2.671-1.79 4.102-2.184 9.806-7.503 14.177-18.155 12.872-5.221-.639-10.09 2.897-13.574 8.271l5.775-.695-2.355 5.611 5.179-.759-1.177 4.504c1.739.255 3.362.14 4.645.744 4.958 2.337 23.297-1.541 26.596-5.797.304-.392.632-.801.802-1.257 3.065-8.243 7.848-14.982 16.81-18.322l-3.087-4.225 9.183-4.873c-2.648-2.688-6.872-5.163-8.015-8.648s.792-7.985 1.378-12.04c4.458 3.445 7.377 6.833 10.387 10.139 10.008 10.994 10.021 10.982 4.663 24.753-3.952 10.156-3.952 10.271-14.714 10.256-6.152-.008-10.622 2.895-14.401 7.318-.222.259-.029.873-.029 1.358l4.232-.636-2.13 5.651 4.767-.725v4.905c1.231-.084 2.284-.461 3.088-.164 11.6 4.282 26.378-1.805 30.947-13.182 3.555-8.854 6.719-17.816 16.714-21.62.203-.077.26-.54.455-.981l-2.537-3.262 10.194-5.562c-2.343-1.124-4.466-2-6.451-3.12-6.79-3.833-12.921-8.222-13.243-17.089l-1.296-35.484c.759-.087 2.099-.1 3.366-.409 7.875-1.916 16.017-3.163 23.526-6.048 9.159-3.519 12.862-11.154 11.049-19.432-1.723-7.869-8.337-12.967-18.09-12.28-7.029.495-14.143 2.132-20.851 4.366-14.24 4.744-28.76 6.944-43.68 6.333-3.728-.153-7.654-1.056-11.001-2.642-1.735-.823-3.427-3.973-3.279-5.931.165-2.182 2.286-5.878 3.827-6.022 9.206-.862 18.49-.895 27.748-1.172.254-.008.509.383.78.563 10.569 7.021 21.816 5.827 33.599 3.08l-3.386-3.018 24.069-5.218c-3.898-4.3-8.878-5.661-14.773-4.65l1.461-3.253c-5.449-.478-11.007-.59-16.421-1.53-8.05-1.397-15.487-.828-22.432 3.954-1.585 1.091-3.929 1.421-5.944 1.488-8.456.283-17.001-.344-25.358.657-8.744 1.047-13.539 8.033-12.993 16.684.506 8.016 6.021 13.433 16.012 15.054 18.472 2.998 36.398.086 54.169-5.103 6.475-1.891 13.24-3.032 19.954-3.704 1.823-.182 4.633 2.187 5.762 4.108 1.668 2.84-.069 5.416-2.744 7.107-.978.619-2.001 1.431-3.083 1.58-10.299 1.425-20.582 3.216-30.936 3.912-8.582.577-17.29-.751-25.879-.216-14.713.916-29.253.567-43.722-2.435-3.501-.726-6.242-1.761-6.578-5.429l7.593-5.184-5.608-4.553 6.592-5.511-10.721-12.541 1.952-1.821z"/><path fill="#e87f0f" d="M441.415 156.223c18.82-.242 30.508 9.815 33.293 27.918.279 1.811 1.651 3.891 3.143 5.009 13.071 9.8 16.744 26.592 8.629 40.395-7.856 13.363-24.468 18.273-39.213 11.823-1.651-.722-4.173-.685-5.834.043-14.914 6.534-31.284 1.472-39.409-12.412-7.917-13.53-3.863-30.496 9.471-40.152 1.167-.845 2.363-2.38 2.555-3.734 2.379-16.787 10.468-25.538 27.366-28.889m-38.577 66.27c6.113 16.567 25.137 23.996 38.068 14.862-1.557-3.039-3.698-3.323-6.941-2.373-2.911.853-6.298 1.043-9.286.497-10.392-1.899-17.292-9.806-17.889-19.837-.604-10.16 5.402-19.007 15.052-22.17 9.376-3.073 19.224.658 25.11 9.497.436.655.969 1.244 1.606 2.053l3.942-1.985c-4.707-10.798-16.213-17.271-27.222-15.604-17.09 2.588-26.414 16.664-22.439 35.059m50.803 17.651c13.974 3.343 27.493-3.775 32.122-16.902 4.78-13.554-2.618-28.297-13.276-32.157 1.249 3.253 1.521 5.874 2.958 7.39 8.026 8.469 9.004 20.1 2.089 29.064-6.685 8.666-18.761 10.924-28.236 5.278-9.551-5.691-13.257-17.381-8.415-27.805 1.525-3.283.897-4.862-2.2-6.003-11.077 14.335-4.132 34.327 14.957 41.133m-25.738-67.672c8.031-8.095 17.657-9.897 26.736-5.004 8.346 4.497 12.938 14.017 11.159 23.133-1.91 9.788-9.542 16.524-20.274 17.483-3.741.334-3.667 2.266-3.236 4.877 13.859 2.019 27.481-9.092 28.75-23.154 1.444-15.992-9.774-29.364-25.12-29.946-15.737-.597-28.229 10.946-27.277 26.325 1.839-1.311 3.433-2.896 4.542-4.769 1.594-2.691 2.836-5.592 4.72-8.945m38.652 34.567c-1.351 1.221-2.745 2.399-4.043 3.675-1.346 1.324-3.278 2.536-3.769 4.157-1.6 5.273-2.658 10.71-3.949 16.186 7.709 3.267 17.025-.03 21.568-8.026 4.593-8.085 2.626-17.767-4.698-22.873l-5.109 6.883m-7.454-31.476c-5.248-6.352-11.75-9.133-19.89-6.651-7.123 2.171-11.404 6.976-12.683 13.671l16.739 5.003c.831.236 1.876-.023 2.76-.273l16.245-4.715c-.718-1.715-1.709-4.081-3.172-7.034m-36.762 31.588l-5.382-6.993c-7.446 6.06-9.045 15.091-4.261 23.263 4.533 7.743 13.717 10.849 21.914 7.393-1.194-3.226-3.232-6.409-3.403-9.69-.328-6.294-3.487-10.275-8.867-13.973m39.24-14.829l2.129-5.913-15.876 3.377-.021 2.54c2.178.334 4.353.903 6.536.935 2.139.032 4.286-.482 7.231-.939m-35.092 6.558c-2.441-3.366-2.441-3.366-6.927-.263l10.126 11.286c4.653-5.866-1.045-7.433-3.199-11.023m20.697 25.987l2.072 4.731 2.009-.254 4.375-13.899-2.281-1.213c-1.353 1.78-2.857 3.469-4.007 5.372-.833 1.377-1.197 3.038-2.168 5.263z"/><path fill="#eb7c07" d="M273.166 234.924l-4.964.736v-71.709c15.274-2.291 30.546-4.072 45.708.726 3.864 1.223 7.253 1.145 11.072-.049 15.06-4.711 30.24-2.93 45.631-.711v71.511l-17.309-1.738c-10.576-1.025-20.885.355-31.053 3.308-1.623.471-3.619.592-5.207.104-14.314-4.393-28.813-4.472-43.877-2.176m37.406-12.979l7.281 1.438-.132-51.359c-.012-1.08-1.723-2.675-2.971-3.124-14.062-5.066-28.346-3.743-42.581-1.648v52.543l38.403 2.15M367 202.499v-35.362c-14.364-1.722-28.066-2.972-41.685 1.175-3.188.971-4.495 2.231-4.417 5.814.267 12.319.103 24.648.104 36.973v12.729c15.356-4.934 30.402-4.411 45.998-2.385v-18.945z"/><path d="M364.195 823.595c1.284-4.061 3.063-7.435 7.478-7.287 4.043.136 6.139 3.129 6.964 6.787.968 4.29.515 8.392-3.462 11.149-3.897 2.701-8.586.977-10.303-3.915-.688-1.961-.532-4.218-.677-6.733zm65.76 10.526c-3.578-4.53-4.148-9.301-1.29-13.692 1.309-2.011 4.446-3.927 6.716-3.884 1.954.037 4.791 2.571 5.547 4.624 1.006 2.733 1.052 6.247.305 9.111-1.553 5.945-5.47 7.174-11.278 3.841z" fill="#f6f9fa"/><path fill="#eff4f6" d="M513.673 817.617c6.265-2.382 9.43-.529 9.997 5.618h-13.544c1.363-2.249 2.308-3.809 3.547-5.618z"/><path d="M241.016 828.509c-1.231 4.868-3.645 7.889-8.721 7.56-4.101-.266-6.116-3.035-7.134-6.591-1.3-4.543.558-9.942 3.894-12.006 4.634-2.867 10.443-.134 11.786 5.68.365 1.581.163 3.293.175 5.357zm233.091-.825c-.807 4.943-2.968 8.253-7.974 8.399-4.532.133-6.894-2.766-7.969-6.795-1.296-4.861.764-10.165 4.526-12.133 4.244-2.22 9.35.131 10.928 5.209.478 1.54.362 3.264.489 5.32z" fill="#f6f9fa"/><path d="M398.593 828.248l9.577-1.629c.67 4.565-.366 7.862-4.185 8.919-2.021.56-4.824-.218-6.675-1.361-.63-.389.572-3.744 1.283-5.929zm-83.235-61.863c3.466-.947 6.625-1.634 10.198-2.412.832 4.241.183 7.433-3.082 8.687-2.12.813-5.042.287-7.3-.507-.611-.215-.112-3.586.184-5.768zm-119.063-1.541c.733 5.823-2.107 9.57-6.733 8.831-1.701-.272-4.122-2.076-4.391-3.52-.252-1.358 1.569-3.964 3.071-4.584 2.299-.95 5.107-.665 8.052-.726z" fill="#eff4f6"/><path d="M486.135 761.157c-3.36.316-4.558-1.298-2.703-3.297 1.695-1.826 4.521-3.524 6.893-3.585 3.655-.094 5.146 2.966 5.401 6.882-3.167 0-6.146 0-9.592-.001zm-220.88 5.897c-1.39 4.795-4.242 7.178-8.914 6.657-4.126-.461-7.024-4.504-7.166-9.491-.136-4.775 2.699-9.096 6.594-10.051 6.185-1.517 10.746 4.423 9.485 12.886z" fill="#f6f9fa"/><path fill="#0c437c" d="M373.522 279.365l-1.693 1.591 10.721 12.541-6.592 5.511 5.608 4.553-7.593 5.184c.336 3.667 3.077 4.702 6.578 5.429 14.469 3.002 29.009 3.351 43.722 2.435 8.589-.535 17.297.793 25.879.216 10.354-.696 20.637-2.487 30.936-3.912 1.082-.15 2.105-.962 3.083-1.58 2.675-1.691 4.412-4.267 2.744-7.107-1.128-1.92-3.939-4.29-5.762-4.108-6.714.671-13.479 1.813-19.954 3.704-17.771 5.189-35.697 8.101-54.169 5.103-9.99-1.621-15.506-7.038-16.012-15.054-.546-8.651 4.249-15.637 12.993-16.684 8.357-1.001 16.902-.373 25.358-.657 2.015-.068 4.359-.397 5.944-1.488 6.945-4.782 14.381-5.351 22.432-3.954 5.414.94 10.972 1.051 16.421 1.53l-1.461 3.253c5.895-1.011 10.875.351 14.773 4.65l-24.069 5.218 3.386 3.018c-11.783 2.747-23.03 3.94-33.599-3.08-.271-.18-.526-.571-.78-.563-9.259.277-18.542.309-27.748 1.172-1.541.144-3.661 3.84-3.827 6.022-.148 1.958 1.544 5.109 3.279 5.931 3.347 1.587 7.273 2.49 11.001 2.642 14.921.611 29.44-1.589 43.68-6.333 6.707-2.234 13.821-3.871 20.851-4.366 9.753-.687 16.367 4.411 18.09 12.28 1.812 8.278-1.89 15.914-11.049 19.432-7.509 2.885-15.651 4.132-23.526 6.048-1.268.308-2.607.322-3.366.409l1.296 35.484c.322 8.868 6.453 13.256 13.243 17.089 1.985 1.12 4.108 1.997 6.451 3.12l-10.194 5.562 2.537 3.262c-.195.441-.252.904-.455.981-9.995 3.803-13.159 12.765-16.714 21.62-4.568 11.377-19.347 17.464-30.947 13.182-.804-.297-1.856.08-3.088.164v-4.905l-4.767.725 2.13-5.651-4.232.636c0-.485-.193-1.098.029-1.358 3.779-4.423 8.25-7.326 14.401-7.318 10.762.015 10.762-.1 14.714-10.256 5.358-13.77 5.346-13.759-4.663-24.753-3.009-3.306-5.928-6.694-10.387-10.139-.586 4.055-2.522 8.552-1.378 12.04s5.367 5.959 8.015 8.648l-9.183 4.873 3.087 4.225c-8.962 3.341-13.745 10.079-16.81 18.322-.169.456-.498.865-.802 1.257-3.299 4.256-21.638 8.134-26.596 5.797-1.283-.605-2.905-.489-4.645-.744l1.177-4.504-5.179.759 2.355-5.611-5.775.695c3.484-5.374 8.353-8.911 13.574-8.271 10.652 1.305 15.97-3.066 18.155-12.872.319-1.431 1.099-2.78 1.79-4.102 1.64-3.138 1.392-5.58-1.245-8.422-3.714-4-6.98-8.503-9.88-13.14-1.882-3.009-3.618-3.526-6.583-1.465l1.56 4.268-17.049 4.684 3.395 5.217-14.277 6.926 6.215 3.649c-2.701 1.499-4.214 2.441-5.811 3.208-11.818 5.68-18.992 15.365-23.106 27.424-1.636 4.795-4.323 7.578-9.307 8.482-4.079.74-8.04 2.397-12.128 2.731-3.391.277-6.887-.825-10.347-1.223-1.05-.121-2.136.068-3.616.134.687-3.125 1.791-7.02-4.237-4.741l2.014-5.942-4.411.739c.039-.604-.108-1.201.12-1.437 4.058-4.2 8.883-6.608 14.87-6.583 11.2.046 11.237.003 14.548-10.665 1.033-3.331 1.616-6.807 2.742-10.102 2.676-7.826 3.814-15.036-2.883-21.959-2.454-2.537-2.71-7.201-4.055-11.148l-4.98 4.705-3.154-4.762c-8.7 2.643-18.491 2.521-25.078 12.494v-16.946l-5.454 1.661c-.573-6.244-.899-12.157-1.748-17.994-.393-2.704-1.358-5.547-2.832-7.833-5.26-8.157-8.586-17.625-16.548-24.019-1.496-1.201-1.64-4.108-2.361-6.244-.549-1.628-1.024-3.28-1.351-4.335l3.112-9.634c4.858-.563 5.185-1.067 2.398-5.841 5.659-.126 11.943 3.9 13.561 8.855 1.185 3.629 2.39 7.278 3.18 11.004 1.594 7.519 6.063 12.751 12.68 16.765l2.249-6.155-7.898-4.93 6.387-5.244c-7.073-5.371-5.522-11.366 4.122-16.952l-4.871-4.368c3.951-5.488 10.135-5.253 15.93-5.914l-.788-3.569c8.958 1.08 18.94-5.128 25.524 5.667 2.415-4.595 6.291-6.581 11.137-6.427 4.476.142 8.939.685 13.85 1.089l-.184 3.283c5.805.488 11.685.663 15.907 5.825l-2.735 2.241m-47.453 45.606s-.057-.027-.378.749c-.084 6.201 4.805 5.741 8.499 5.662 3.743-.08 8.77 1.233 9.828-4.997.259-1.525 1.728-2.842 2.629-4.262.738-1.164 2.23-2.47 2.058-3.489-.941-5.584 2.381-9.078 5.685-12.585 3.37-3.577 6.492-7.068 1.277-11.509 1.235-1.547 2.344-2.596 3.036-3.871 1.768-3.26-.139-6.951-3.751-7.588l-17.092-3.071-3.031 4.348-3.724-4.805-13.915 3.731c-2.201.642-5.098 1.047-6.207 2.607-.89 1.251.444 4.08.786 6.21.23 1.433 1.157 3.375.555 4.211-2.326 3.225-.976 5.327 1.184 7.841 2.669 3.108 6.532 6.403 6.933 9.951.545 4.82 1.706 8.322 5.63 10.866m50.562-9.081c-1.974 3.789-4.095 7.511-5.886 11.384-2.243 4.851-4.215 9.826-6.491 15.191l-7.113-2.683c1.085 7.829.493 14.984-4.965 21.373l-4.913-5.572c-1.443 4.342-1.841 9.662-4.612 13.026-5.866 7.12-8.384 15.222-10.262 23.85-.811 3.727-1.949 7.396-3.147 11.023-3.154 9.539-3.2 9.528-12.96 9.739-1.664.036-3.539-.46-4.946.148-2.383 1.029-4.471 2.743-6.683 4.168l.744 1.198 3.612.508-.866 4.569 4.438-.416v5.304l20.583-4.97c1.384-.379 2.747-1.939 3.514-3.298l20.301-36.567c3.391-6.206 9.403-11.624 5.703-19.949l26.418-7.781 26.22-7.672-2.268-6.07 1.787-1.254c3.306 3.695 6.799 7.241 9.878 11.116 5.788 7.284 10.973 15.074 17.065 22.083 10.737 12.354 10.61 12.053 4.868 27.698-3.039 8.28-7.049 13.633-16.766 11.437-.464-.105-.991.107-1.488.106-3.505-.012-5.995 1.112-5.887 5.515 5.084-1.008 2.303 2.806 2.584 4.728l4.724-.294-.208 4.713c5.102-1.252 9.88-2.565 14.721-3.568 3.976-.824 6.212-3.098 7.902-6.761 5.218-11.311 10.711-22.498 16.266-33.649 1.253-2.516.795-3.794-1.503-5.25-4.928-3.124-7.758-7.687-8.105-13.604l-2.242-39.292 9.186-1.121c8.417-1.218 16.781-2.633 23.958-7.721 5.321-3.773 6.493-9.014 5.204-15.032-1.272-5.942-5.778-9.037-11.122-9.056-6.853-.024-13.793 1.177-20.549 2.565-9.416 1.934-18.595 5.155-28.06 6.673-10.139 1.626-20.53 2.589-30.608-.986-4.351-1.543-6.987-4.488-6.643-9.373.343-4.878 2.797-8.428 7.732-9.041 5.748-.714 11.59-.719 17.395-.911 3.667-.121 7.342-.023 11.013-.023-.34-1.818-.891-2.72-1.439-2.718-9.623.028-19.332-.583-28.84.521-7.501.871-10.699 6.579-10.068 14.2.515 6.229 4.179 10.345 11.639 11.764 18.413 3.503 36.393.976 54.183-4.303 6.339-1.881 12.853-3.481 19.401-4.264 6.123-.732 9.689 2 10.811 6.6 1.131 4.633-.884 8.39-6.6 10.853-10.129 4.364-20.94 5.131-31.793 5.038-7.63-.066-15.301-1.275-22.875-.775-17.204 1.136-34.256 1.17-51.943-3.117m44.571 75.846c2.645-4.707 7.846-8.828 3.227-15.178-.506-.695-.053-2.296.297-3.366 1.176-3.599 2.507-7.147 3.825-10.848-6.374-8.148-10.712-9.334-22.375-5.894l1.787 4.484h-11.898c2.869 4.003 4.661 7.811 7.574 10.318 8.006 6.888 7.506 13.884 2.987 22.712-5.684 11.104-5.065 11.5-17.478 11.574-3.772.023-6.889.422-7.237 5.43 4.951-.965 3.329 2.002 2.594 4.499h4.422l-.312 5.004c6.756-1.831 13.147-3.403 19.406-5.389 1.309-.415 2.392-2.222 3.135-3.623 3.343-6.3 6.525-12.685 10.046-19.722M313.496 342.01c-.718-.457-1.566-1.423-2.131-1.279-1.987.505-3.877 1.392-5.459 2.002-2.416-10.779-5.781-20.454-14.666-27.149-6.068-4.572-10.118-10.25-11.689-17.862-.984-4.768-2.944-9.334-4.44-13.909l-7.137 1.549 2.057 4.439h-7.047l4.889 6.504-4.613 3.026 4.684 5.52c1.316 1.462 3.091 2.613 4.075 4.254l25.94 43.7c3.136 5.261 4.146 5.132 12.188 3.019 5.016-1.318 3.66-4.427 3.33-7.634-.186-1.809-.038-3.652.017-6.18z"/><path d="M402.692 222.122c-3.83-18.023 5.495-32.099 22.585-34.687 11.01-1.667 22.515 4.806 27.222 15.604l-3.942 1.985c-.637-.809-1.17-1.399-1.606-2.053-5.886-8.839-15.734-12.57-25.11-9.497-9.649 3.162-15.656 12.009-15.052 22.17.596 10.031 7.497 17.937 17.889 19.837 2.989.546 6.375.356 9.286-.497 3.243-.95 5.384-.666 6.941 2.374-12.93 9.132-31.954 1.703-38.213-15.235zm50.544 17.946c-18.684-6.73-25.629-26.722-14.552-41.057 3.097 1.141 3.725 2.72 2.2 6.003-4.842 10.424-1.136 22.114 8.415 27.805 9.475 5.645 21.551 3.388 28.236-5.278 6.915-8.965 5.938-20.595-2.089-29.064-1.437-1.517-1.71-4.138-2.958-7.39 10.658 3.86 18.056 18.602 13.276 32.157-4.63 13.127-18.148 20.245-32.527 16.826zm-25.579-67.325l-4.474 8.674c-1.109 1.872-2.703 3.458-4.542 4.769-.952-15.379 11.54-26.922 27.277-26.325 15.347.582 26.564 13.954 25.12 29.946-1.269 14.062-14.892 25.173-28.75 23.154-.43-2.611-.505-4.543 3.236-4.877 10.732-.959 18.364-7.695 20.274-17.483 1.779-9.116-2.814-18.636-11.159-23.133-9.079-4.893-18.705-3.091-26.982 5.275z" fill="#fdf8f1"/><path d="M466.795 206.776l4.869-6.619c7.324 5.106 9.291 14.788 4.698 22.873-4.542 7.996-13.859 11.293-21.568 8.026 1.291-5.475 2.349-10.913 3.949-16.186.492-1.62 2.423-2.833 3.769-4.157 1.298-1.276 2.691-2.454 4.283-3.938zm-7.458-30.919l2.935 6.74-16.245 4.715c-.884.25-1.929.509-2.76.273l-16.739-5.003c1.279-6.695 5.56-11.5 12.683-13.671 8.141-2.481 14.642.3 20.126 6.945zm-36.751 31.558c5.135 3.435 8.293 7.416 8.622 13.71.171 3.281 2.209 6.465 3.403 9.69-8.198 3.455-17.381.35-21.914-7.393-4.784-8.172-3.184-17.203 4.261-23.263l5.628 7.256z" fill="#073f79"/><path d="M461.179 192.414c-2.544.366-4.691.88-6.83.848-2.183-.032-4.358-.601-6.536-.935l.021-2.54 15.876-3.377c-1.098 3.05-1.614 4.482-2.53 6.004zm-34.464 6.757c1.927 3.3 7.625 4.867 2.972 10.733l-10.126-11.286c4.486-3.103 4.486-3.103 7.154.553zm20.669 25.352c.772-1.88 1.136-3.541 1.969-4.918 1.15-1.903 2.655-3.591 4.007-5.372l2.281 1.213-4.375 13.899-2.009.254c-.691-1.577-1.382-3.154-1.873-5.076z" fill="#fdf8f1"/><path fill="#fafaf8" d="M310.142 221.88l-37.973-2.084v-52.543c14.235-2.095 28.519-3.418 42.581 1.648 1.247.449 2.959 2.045 2.971 3.124l.132 51.359-7.711-1.504m-6.538-32.342c.64.182 1.297.562 1.917.507 1.857-.162 3.7-.494 5.548-.76-1.423-1.275-2.773-3.543-4.282-3.656-7.55-.562-15.143-.696-22.717-.617-1.263.013-2.508 1.822-3.761 2.802 1.524.545 3.038 1.527 4.573 1.559l18.724.164m7.382-12.619c-2.052-.933-4.064-2.551-6.162-2.673-6.707-.39-13.454-.403-20.169-.139-1.499.059-2.93 1.837-4.392 2.824 1.647.604 3.265 1.621 4.947 1.741 7.157.512 14.332.881 21.505.999 1.467.024 2.955-1.26 4.272-2.752m-30.668 32.639c1.452.485 2.991 1.558 4.342 1.358 7.655-1.133 15.188-1.589 22.665 1.154.961.352 2.461-.767 3.712-1.204-.911-1.131-1.592-2.824-2.769-3.303-8.354-3.404-16.952-2.631-25.514-.875-.932.191-1.665 1.351-2.436 2.87m21.932-9.566c1.274.346 2.555.993 3.82.963 1.671-.041 3.328-.613 4.991-.958-1.259-1.223-2.307-3.033-3.811-3.57-7.699-2.749-15.612-2.292-23.457-.635-1.308.276-2.376 1.685-3.555 2.571 1.483.604 2.956 1.695 4.451 1.725 5.575.109 11.156-.13 17.562-.096z"/><path fill="#fafbfa" d="M367 202.999v18.445c-15.596-2.027-30.642-2.55-45.998 2.385v-12.729l-.104-36.973c-.078-3.583 1.229-4.843 4.417-5.814 13.619-4.147 27.321-2.897 41.685-1.175v35.861m-8.251-14.805c-.754-1.048-1.366-2.853-2.286-3.026-8.518-1.606-17.1-2.485-25.434.853-1.234.494-2.039 2.058-3.043 3.126 1.508.444 3.031 1.311 4.522 1.26 7.038-.24 14.069-.718 21.101-1.141a16.4 16.4 0 0 0 5.14-1.073m-7.407 6.814c-6.839.594-13.695 1.058-20.5 1.919-1.063.134-1.898 2.075-2.838 3.181 1.397.396 2.813 1.185 4.189 1.121 6.521-.303 13.038-.764 19.542-1.33 2.388-.208 6.804-.943 6.789-1.298-.164-4.13-3.996-2.555-7.183-3.593m.505-16.717c1.309.223 2.675.78 3.911.571 1.104-.187 2.064-1.219 3.088-1.878-.784-.903-1.446-2.432-2.371-2.611-8.732-1.693-17.505-2.419-26.012 1.034-1.071.435-1.662 2.052-2.475 3.121 1.431.442 2.889 1.333 4.287 1.248 6.236-.381 12.456-1.042 19.573-1.485m-8.272 31.731c3.968.361 7.932.892 11.906.974 1.12.023 2.267-1.27 3.401-1.959-.884-.835-1.662-2.226-2.668-2.416-8.561-1.622-17.171-2.465-25.492 1.048-1.157.488-1.786 2.227-2.66 3.387 1.3.352 2.656 1.134 3.889.974 3.597-.467 7.145-1.311 11.623-2.007z"/><path fill="#eb7a03" d="M377.048 315.95c17.27 4.227 34.323 4.193 51.527 3.057 7.574-.5 15.245.709 22.875.775 10.854.093 21.665-.674 31.793-5.038 5.716-2.463 7.731-6.22 6.6-10.853-1.122-4.6-4.688-7.332-10.811-6.6-6.547.783-13.061 2.383-19.401 4.264-17.79 5.279-35.77 7.806-54.183 4.303-7.46-1.419-11.124-5.536-11.639-11.764-.63-7.621 2.567-13.329 10.068-14.2 9.508-1.104 19.217-.493 28.84-.521.548-.002 1.099.9 1.439 2.718-3.671 0-7.346-.099-11.013.023-5.805.192-11.647.197-17.395.911-4.935.613-7.388 4.163-7.732 9.041-.344 4.884 2.292 7.829 6.643 9.373 10.078 3.575 20.468 2.612 30.608.986 9.465-1.518 18.645-4.739 28.06-6.673 6.756-1.388 13.696-2.589 20.549-2.565 5.344.019 9.85 3.114 11.122 9.056 1.289 6.018.117 11.259-5.204 15.032-7.177 5.089-15.54 6.503-23.958 7.721-3.284.475-6.588.808-9.186 1.121l2.242 39.292c.347 5.917 3.177 10.481 8.105 13.604 2.298 1.456 2.756 2.735 1.503 5.25l-16.266 33.649c-1.69 3.663-3.925 5.937-7.902 6.761-4.842 1.003-9.619 2.316-14.721 3.568l.208-4.713-4.724.294c-.281-1.922 2.5-5.736-2.584-4.728-.109-4.402 2.381-5.527 5.887-5.515.497.002 1.024-.21 1.488-.106 9.717 2.196 13.727-3.157 16.766-11.437 5.742-15.645 5.868-15.344-4.868-27.698-6.092-7.01-11.277-14.799-17.065-22.083-3.079-3.875-6.572-7.421-9.878-11.116l-1.787 1.254 2.268 6.07-26.22 7.672-26.418 7.781c3.7 8.325-2.313 13.743-5.703 19.949l-20.301 36.567c-.766 1.358-2.129 2.918-3.514 3.298-6.692 1.834-13.486 3.296-20.583 4.97v-5.304l-4.438.416.866-4.569-3.612-.508-.744-1.198c2.212-1.426 4.3-3.139 6.683-4.168 1.407-.608 3.282-.112 4.946-.148 9.76-.211 9.806-.199 12.96-9.739 1.199-3.626 2.336-7.296 3.147-11.023 1.878-8.628 4.397-16.73 10.262-23.85 2.771-3.364 3.169-8.683 4.612-13.026l4.913 5.572c5.459-6.389 6.05-13.544 4.965-21.373l7.113 2.683 6.491-15.191c1.791-3.874 3.912-7.595 6.302-11.324z"/><path d="M326.101 325.025c-3.956-2.598-5.116-6.099-5.662-10.92-.401-3.548-4.264-6.843-6.933-9.951-2.159-2.514-3.509-4.617-1.184-7.841.603-.836-.324-2.778-.555-4.211-.342-2.13-1.675-4.959-.786-6.21 1.109-1.56 4.006-1.965 6.207-2.607 4.363-1.273 8.779-2.366 13.915-3.731l3.724 4.805 3.031-4.348 17.092 3.071c3.612.637 5.52 4.328 3.751 7.588-.692 1.275-1.801 2.324-3.036 3.871 5.215 4.441 2.093 7.932-1.277 11.509-3.304 3.507-6.626 7-5.685 12.585.172 1.019-1.32 2.325-2.058 3.489-.901 1.42-2.37 2.737-2.629 4.262-1.057 6.23-6.085 4.917-9.828 4.997-3.694.079-8.583.539-7.93-6.092 5.991-.684 11.413-.938 16.434-1.173-2.293-1.546-5.475-2.541-6.392-4.563-1.646-3.631 2.551-4.078 4.546-5.766 1.037-.878 2.156-2.732 1.918-3.869-1.343-6.397-1.987-12.274 5.984-15.198h-9.936v16.479h-12.023c1.476 1.314 2.324 1.829 2.839 2.574 1.291 1.87 3.31 3.85 3.298 5.776-.007 1.142-3.358 2.198-5.11 3.428-.704.495-1.153 1.353-1.718 2.046m1.252-26.091c4.727.224 1.356-2.901 2.399-4.441h-9.879l7.479 4.441zm93.712 93.144l-9.906 19.381c-.743 1.401-1.826 3.208-3.135 3.623-6.259 1.986-12.65 3.558-19.406 5.389l.312-5.004h-4.422c.735-2.497 2.358-5.464-2.594-4.499.348-5.008 3.465-5.407 7.237-5.43 12.413-.074 11.793-.47 17.478-11.574 4.519-8.827 5.019-15.823-2.987-22.712-2.913-2.506-4.705-6.315-7.574-10.318h11.898l-1.787-4.484c11.663-3.439 16.001-2.254 22.375 5.894l-3.825 10.848c-.35 1.069-.802 2.671-.297 3.366 4.62 6.351-.581 10.471-3.367 15.519zM313.467 342.36l.011 5.83c.33 3.207 1.685 6.316-3.33 7.634-8.043 2.113-9.052 2.242-12.188-3.019l-25.94-43.7c-.985-1.641-2.759-2.793-4.075-4.254-1.585-1.761-3.071-3.61-4.684-5.52l4.613-3.026-4.889-6.504h7.047l-2.057-4.439 7.137-1.549c1.496 4.575 3.457 9.141 4.44 13.909 1.57 7.613 5.621 13.29 11.689 17.862 8.885 6.695 12.25 16.37 14.666 27.149 1.582-.609 3.472-1.496 5.459-2.002.565-.144 1.413.822 2.102 1.63z" fill="#ea7b04"/><path d="M303.186 189.398c-6.381-.076-12.346.101-18.305-.024-1.534-.032-3.049-1.014-4.573-1.559 1.253-.979 2.498-2.788 3.761-2.802 7.574-.08 15.167.055 22.717.617 1.51.112 2.859 2.381 4.282 3.656-1.848.266-3.69.598-5.548.76-.619.054-1.277-.326-2.335-.647zm7.881-12.074c-1.398 1.086-2.886 2.371-4.353 2.346-7.173-.118-14.348-.488-21.505-.999-1.682-.12-3.299-1.137-4.947-1.741 1.462-.987 2.893-2.765 4.392-2.824 6.715-.263 13.462-.251 20.169.139 2.099.122 4.111 1.74 6.243 3.078zm-30.776 31.829c.798-1.115 1.531-2.275 2.463-2.466 8.561-1.756 17.16-2.529 25.514.875 1.176.479 1.858 2.172 2.769 3.303-1.25.437-2.751 1.556-3.712 1.204-7.477-2.743-15.01-2.287-22.665-1.154-1.351.2-2.89-.873-4.369-1.762zm21.546-9.232l-17.148.167c-1.494-.029-2.968-1.121-4.451-1.725 1.179-.886 2.248-2.295 3.555-2.571 7.845-1.658 15.758-2.114 23.457.635 1.504.537 2.552 2.347 3.811 3.57-1.663.344-3.321.917-4.991.958-1.265.031-2.546-.617-4.234-1.034zm56.662-11.421a24.99 24.99 0 0 1-4.889.767l-21.101 1.141c-1.491.051-3.014-.816-4.522-1.26 1.004-1.069 1.809-2.632 3.043-3.126 8.334-3.339 16.916-2.459 25.434-.853.919.173 1.531 1.978 2.035 3.332zm-6.724 6.548c2.754.998 6.586-.577 6.75 3.553.014.355-4.401 1.09-6.789 1.298-6.504.566-13.021 1.027-19.542 1.33-1.376.064-2.792-.725-4.189-1.121.94-1.106 1.775-3.047 2.838-3.181 6.805-.861 13.661-1.325 20.933-1.879zm-.374-16.816l-19.127 1.543c-1.398.086-2.856-.806-4.287-1.248.813-1.069 1.404-2.687 2.475-3.121 8.507-3.453 17.28-2.727 26.012-1.034.924.179 1.587 1.708 2.371 2.611-1.024.659-1.984 1.691-3.088 1.878-1.236.209-2.602-.347-4.357-.629z" fill="#134a84"/><path fill="#0f4782" d="M343.119 210.021c-4.023.696-7.571 1.54-11.168 2.007-1.233.16-2.589-.622-3.889-.974.874-1.16 1.503-2.899 2.66-3.387 8.321-3.513 16.931-2.669 25.492-1.048 1.006.191 1.784 1.582 2.668 2.416-1.134.689-2.281 1.983-3.401 1.959-3.974-.082-7.938-.613-12.362-.974z"/><path d="M326.085 324.998c.581-.666 1.03-1.524 1.734-2.018 1.752-1.23 5.103-2.287 5.11-3.428.011-1.926-2.008-3.905-3.298-5.776-.515-.746-1.363-1.261-2.839-2.574h12.023v-16.479h9.936c-7.971 2.924-7.327 8.801-5.984 15.198.238 1.136-.88 2.99-1.918 3.869-1.995 1.689-6.192 2.136-4.546 5.766.916 2.022 4.098 3.016 6.392 4.563l-16.274.785c-.409.041-.352.068-.336.095zm.972-26.241l-7.183-4.264h9.879c-1.043 1.54 2.327 4.666-2.696 4.264z" fill="#1a436f"/></svg>